<svg width="20" height="25" viewBox="0 0 20 25" fill="none" xmlns="http://www.w3.org/2000/svg">
<path fill-rule="evenodd" clip-rule="evenodd" d="M10 0C10.3599 0 10.705 0.164432 10.9595 0.457121C11.2139 0.749811 11.3569 1.14678 11.3569 1.56071L11.3569 19.6431L17.1807 12.9414C17.3069 12.7963 17.4566 12.6812 17.6215 12.6026C17.7863 12.5241 17.963 12.4837 18.1414 12.4837C18.3198 12.4837 18.4965 12.5241 18.6613 12.6026C18.8261 12.6812 18.9759 12.7963 19.1021 12.9414C19.2282 13.0865 19.3283 13.2588 19.3966 13.4484C19.4649 13.638 19.5 13.8412 19.5 14.0464C19.5 14.2516 19.4649 14.4548 19.3966 14.6444C19.3283 14.834 19.2282 15.0062 19.1021 15.1514L10.9607 24.5156C10.8346 24.6609 10.6849 24.7763 10.5201 24.8549C10.3552 24.9336 10.1785 24.9741 10 24.9741C9.82152 24.9741 9.6448 24.9336 9.47995 24.8549C9.3151 24.7763 9.16536 24.6609 9.03932 24.5156L0.897929 15.1514C0.77177 15.0062 0.671695 14.834 0.603418 14.6444C0.535142 14.4548 0.5 14.2516 0.5 14.0464C0.5 13.8412 0.535142 13.638 0.603418 13.4484C0.671695 13.2588 0.77177 13.0865 0.897929 12.9414C1.15272 12.6483 1.49829 12.4837 1.85861 12.4837C2.03703 12.4837 2.2137 12.5241 2.37853 12.6026C2.54337 12.6812 2.69314 12.7963 2.8193 12.9414L8.6431 19.6431L8.6431 1.56071C8.6431 1.14678 8.78606 0.749811 9.04053 0.457121C9.295 0.164432 9.64013 0 10 0V0Z" fill="#E81F54"/>
</svg>
