<svg width="26" height="22" viewBox="0 0 26 22" fill="none" xmlns="http://www.w3.org/2000/svg">
<path fill-rule="evenodd" clip-rule="evenodd" d="M-4.80825e-07 11C-4.9904e-07 10.5833 0.165531 10.1837 0.460178 9.88903C0.754824 9.59438 1.15445 9.42885 1.57114 9.42885L19.7744 9.42885L13.0279 2.6855C12.8819 2.53942 12.766 2.366 12.6869 2.17514C12.6079 1.98428 12.5672 1.77971 12.5672 1.57313C12.5672 1.36654 12.6079 1.16198 12.6869 0.971116C12.766 0.780256 12.8819 0.606836 13.0279 0.460758C13.174 0.31468 13.3474 0.198802 13.5383 0.119745C13.7292 0.0406889 13.9337 -6.09062e-07 14.1403 -6.18092e-07C14.3469 -6.27123e-07 14.5515 0.0406888 14.7423 0.119745C14.9332 0.198802 15.1066 0.314679 15.2527 0.460758L24.6795 9.88763C24.8259 10.0336 24.9419 10.207 25.0212 10.3978C25.1004 10.5887 25.1411 10.7933 25.1411 11C25.1411 11.2067 25.1004 11.4113 25.0212 11.6022C24.9419 11.793 24.8259 11.9664 24.6795 12.1124L15.2527 21.5392C15.1066 21.6853 14.9332 21.8012 14.7423 21.8803C14.5515 21.9593 14.3469 22 14.1403 22C13.9337 22 13.7292 21.9593 13.5383 21.8803C13.3474 21.8012 13.174 21.6853 13.0279 21.5392C12.7329 21.2442 12.5672 20.8441 12.5672 20.4269C12.5672 20.2203 12.6079 20.0157 12.6869 19.8249C12.766 19.634 12.8819 19.4606 13.0279 19.3145L19.7744 12.5711L1.57114 12.5711C1.15445 12.5711 0.754825 12.4056 0.460178 12.111C0.165531 11.8163 -4.62611e-07 11.4167 -4.80825e-07 11Z" fill="#062A51"/>
</svg>
