<svg width="20" height="16" viewBox="0 0 22 18" fill="none" xmlns="http://www.w3.org/2000/svg">
<path fill-rule="evenodd" clip-rule="evenodd" d="M0.634766 9C0.634766 8.65907 0.770506 8.3321 1.01212 8.09103C1.25374 7.84995 1.58145 7.71452 1.92315 7.71452L16.8504 7.71452L11.318 2.19723C11.1983 2.07771 11.1032 1.93582 11.0384 1.77966C10.9736 1.6235 10.9402 1.45613 10.9402 1.28711C10.9402 1.11808 10.9736 0.95071 11.0384 0.79455C11.1032 0.638392 11.1983 0.496504 11.318 0.376984C11.4378 0.257465 11.58 0.162657 11.7366 0.0979748C11.8931 0.0332909 12.0608 7.28147e-09 12.2302 0C12.3996 -7.28056e-09 12.5674 0.0332908 12.7239 0.0979748C12.8804 0.162657 13.0226 0.257465 13.1424 0.376984L20.8727 8.08988C20.9927 8.20929 21.0879 8.35114 21.1528 8.50732C21.2178 8.66349 21.2512 8.83091 21.2512 9C21.2512 9.16908 21.2178 9.33651 21.1528 9.49268C21.0879 9.64886 20.9927 9.79071 20.8727 9.91012L13.1424 17.623C13.0226 17.7425 12.8804 17.8373 12.7239 17.902C12.5674 17.9667 12.3996 18 12.2302 18C12.0608 18 11.8931 17.9667 11.7366 17.902C11.58 17.8373 11.4378 17.7425 11.318 17.623C11.0761 17.3816 10.9402 17.0543 10.9402 16.7129C10.9402 16.5439 10.9736 16.3765 11.0384 16.2203C11.1032 16.0642 11.1983 15.9223 11.318 15.8028L16.8504 10.2855H1.92315C1.58145 10.2855 1.25374 10.15 1.01212 9.90897C0.770506 9.6679 0.634766 9.34093 0.634766 9Z" fill="#F0EAD8"/>
</svg>
