<svg width="1920" height="2803" viewBox="0 0 1920 2803" fill="none" xmlns="http://www.w3.org/2000/svg">
<path fill-rule="evenodd" clip-rule="evenodd" d="M-72.8757 0H-39.3521V58.2728L27.7042 58.2452V135.939H94.7514V213.661H145V252.466H44.4201L44.5303 174.735H-22.526V97.023H-72.8757V0Z" fill="url(#paint0_linear_401_18759)"/>
<path fill-rule="evenodd" clip-rule="evenodd" d="M145 252.466L119.968 267H19.3417V189.278H-47.7054V111.584H-98V14.4875L-72.8757 0V97.023H-22.526V174.735H44.5303V252.466H145Z" fill="url(#paint1_linear_401_18759)"/>
<g clip-path="url(#clip0_401_18759)">
<path d="M91.409 40.9524C84.405 40.9524 78.7272 35.2684 78.7272 28.2569C78.7272 21.2453 84.405 15.5613 91.409 15.5613C98.413 15.5613 104.091 21.2453 104.091 28.2569C104.091 35.2684 98.413 40.9524 91.409 40.9524Z" fill="url(#paint2_radial_401_18759)"/>
</g>
<g clip-path="url(#clip1_401_18759)">
<path fill-rule="evenodd" clip-rule="evenodd" d="M1629.94 777.832L1632.52 762.317L1659.43 766.788L1664.57 735.752L1700.45 741.713L1705.61 710.683L1741.5 716.646L1745.37 693.391L1763.29 696.368L1755.56 742.916L1719.67 736.902L1714.51 767.935L1678.62 761.973L1674.75 785.275L1629.94 777.832Z" fill="url(#paint3_linear_401_18759)"/>
<path fill-rule="evenodd" clip-rule="evenodd" d="M1763.29 696.368L1768.08 709.068L1760.34 755.637L1724.45 749.675L1719.29 780.704L1683.41 774.743L1679.54 798.019L1634.7 790.57L1629.94 777.832L1674.75 785.275L1678.62 761.973L1714.51 767.935L1719.67 736.902L1755.56 742.865L1763.29 696.368Z" fill="url(#paint4_linear_401_18759)"/>
<g clip-path="url(#clip2_401_18759)">
<path d="M1667.63 700.54C1666.61 706.697 1660.8 710.86 1654.65 709.839C1648.49 708.817 1644.34 702.997 1645.36 696.84C1646.38 690.683 1652.2 686.52 1658.35 687.542C1664.5 688.564 1668.66 694.383 1667.63 700.54Z" fill="url(#paint5_radial_401_18759)"/>
</g>
</g>
<g clip-path="url(#clip3_401_18759)">
<path fill-rule="evenodd" clip-rule="evenodd" d="M1977.19 1498H1952.07V1542.09L1901.85 1542.07V1600.85H1851.63V1659.65H1813.99V1689.01H1889.33L1889.25 1630.2H1939.46V1571.4H1977.19V1498Z" fill="url(#paint6_linear_401_18759)"/>
<path fill-rule="evenodd" clip-rule="evenodd" d="M1813.99 1689.01L1832.75 1700H1908.11V1641.2H1958.33V1582.42H1996V1508.96L1977.19 1498V1571.4H1939.46V1630.2H1889.25V1689.01H1813.99Z" fill="url(#paint7_linear_401_18759)"/>
</g>
<g clip-path="url(#clip4_401_18759)">
<path fill-rule="evenodd" clip-rule="evenodd" d="M199.364 766.72L184.267 765.737L192.311 752.919L207.418 753.897L199.364 766.72Z" fill="url(#paint8_linear_401_18759)"/>
<path fill-rule="evenodd" clip-rule="evenodd" d="M206.423 780.521L199.37 766.72L207.418 753.897L214.465 767.704L206.423 780.521Z" fill="url(#paint9_linear_401_18759)"/>
<path fill-rule="evenodd" clip-rule="evenodd" d="M184.267 765.737L191.317 779.533L206.423 780.521L199.376 766.714L184.267 765.737Z" fill="url(#paint10_linear_401_18759)"/>
</g>
<g clip-path="url(#clip5_401_18759)">
<path fill-rule="evenodd" clip-rule="evenodd" d="M12.5387 1706.49L72.2278 1741.23L12.5387 1776L-47.2281 1741.27L12.5387 1706.49Z" fill="url(#paint11_linear_401_18759)"/>
<path fill-rule="evenodd" clip-rule="evenodd" d="M72.2278 1741.23V1810.73L12.5041 1845.52L12.5386 1776L72.2278 1741.23Z" fill="url(#paint12_linear_401_18759)"/>
<path fill-rule="evenodd" clip-rule="evenodd" d="M-47.228 1741.27V1810.76L12.5043 1845.52L12.5388 1776L-47.228 1741.27Z" fill="url(#paint13_linear_401_18759)"/>
<path opacity="0.25" fill-rule="evenodd" clip-rule="evenodd" d="M12.5561 1651L120 1713.52L12.5561 1776.11L-95 1713.58L12.5561 1651Z" fill="url(#paint14_linear_401_18759)"/>
<path opacity="0.25" fill-rule="evenodd" clip-rule="evenodd" d="M-95.0002 1713.57V1838.49L12.3746 1901L12.4351 1776.01L-95.0002 1713.57Z" fill="url(#paint15_linear_401_18759)"/>
<path opacity="0.25" fill-rule="evenodd" clip-rule="evenodd" d="M120 1713.54V1838.48L12.3748 1901L12.4352 1776.05L120 1713.54Z" fill="url(#paint16_linear_401_18759)"/>
<g clip-path="url(#clip6_401_18759)">
<path d="M89.194 1671.46C86.3584 1671.46 84.0597 1669.17 84.0597 1666.35C84.0597 1663.52 86.3584 1661.23 89.194 1661.23C92.0297 1661.23 94.3284 1663.52 94.3284 1666.35C94.3284 1669.17 92.0297 1671.46 89.194 1671.46Z" fill="url(#paint17_radial_401_18759)"/>
</g>
</g>
<g clip-path="url(#clip7_401_18759)">
<path fill-rule="evenodd" clip-rule="evenodd" d="M181.013 67.8673L201.002 79.6771L181.013 91.5016L160.998 79.6919L181.013 67.8673Z" fill="url(#paint18_linear_401_18759)"/>
<path fill-rule="evenodd" clip-rule="evenodd" d="M201.002 79.6769V103.308L181.001 115.136L181.013 91.5014L201.002 79.6769Z" fill="url(#paint19_linear_401_18759)"/>
<path fill-rule="evenodd" clip-rule="evenodd" d="M160.998 79.6918V103.317L181.001 115.136L181.013 91.5015L160.998 79.6918Z" fill="url(#paint20_linear_401_18759)"/>
<path opacity="0.25" fill-rule="evenodd" clip-rule="evenodd" d="M181.019 49L217 70.2552L181.019 91.537L145 70.2789L181.019 49Z" fill="url(#paint21_linear_401_18759)"/>
<path opacity="0.25" fill-rule="evenodd" clip-rule="evenodd" d="M145 70.2728V112.748L180.958 134L180.978 91.5043L145 70.2728Z" fill="url(#paint22_linear_401_18759)"/>
<path opacity="0.25" fill-rule="evenodd" clip-rule="evenodd" d="M217 70.2639V112.742L180.958 134L180.978 91.5161L217 70.2639Z" fill="url(#paint23_linear_401_18759)"/>
</g>
<g clip-path="url(#clip8_401_18759)">
<path fill-rule="evenodd" clip-rule="evenodd" d="M10.531 2419L71 2453.48L10.531 2487.99L-50.0124 2453.52L10.531 2419Z" fill="url(#paint24_linear_401_18759)"/>
<path fill-rule="evenodd" clip-rule="evenodd" d="M71 2453.48V2522.47L10.4938 2557L10.531 2487.99L71 2453.48Z" fill="url(#paint25_linear_401_18759)"/>
<path fill-rule="evenodd" clip-rule="evenodd" d="M-50.0129 2453.52V2522.48L10.4933 2557L10.5305 2487.99L-50.0129 2453.52Z" fill="url(#paint26_linear_401_18759)"/>
</g>
<g clip-path="url(#clip9_401_18759)">
<path fill-rule="evenodd" clip-rule="evenodd" d="M1746.52 1500.2L1770.11 1514.09L1746.52 1528L1722.89 1514.11L1746.52 1500.2Z" fill="url(#paint27_linear_401_18759)"/>
<path fill-rule="evenodd" clip-rule="evenodd" d="M1770.11 1514.09V1541.89L1746.5 1555.81L1746.52 1528L1770.11 1514.09Z" fill="url(#paint28_linear_401_18759)"/>
<path fill-rule="evenodd" clip-rule="evenodd" d="M1722.89 1514.11V1541.9L1746.5 1555.81L1746.52 1528L1722.89 1514.11Z" fill="url(#paint29_linear_401_18759)"/>
<path opacity="0.25" fill-rule="evenodd" clip-rule="evenodd" d="M1746.52 1478L1789 1503.01L1746.52 1528.04L1704 1503.03L1746.52 1478Z" fill="url(#paint30_linear_401_18759)"/>
<path opacity="0.25" fill-rule="evenodd" clip-rule="evenodd" d="M1704 1503.03V1553L1746.45 1578L1746.47 1528.01L1704 1503.03Z" fill="url(#paint31_linear_401_18759)"/>
<path opacity="0.25" fill-rule="evenodd" clip-rule="evenodd" d="M1789 1503.02V1552.99L1746.45 1578L1746.47 1528.02L1789 1503.02Z" fill="url(#paint32_linear_401_18759)"/>
</g>
<g clip-path="url(#clip10_401_18759)">
<path fill-rule="evenodd" clip-rule="evenodd" d="M799.009 2561.43L812.335 2569.21L799.009 2577L785.665 2569.22L799.009 2561.43Z" fill="url(#paint33_linear_401_18759)"/>
<path fill-rule="evenodd" clip-rule="evenodd" d="M812.335 2569.21V2584.78L799.001 2592.57L799.009 2577L812.335 2569.21Z" fill="url(#paint34_linear_401_18759)"/>
<path fill-rule="evenodd" clip-rule="evenodd" d="M785.665 2569.22V2584.79L799.001 2592.57L799.009 2577L785.665 2569.22Z" fill="url(#paint35_linear_401_18759)"/>
<path opacity="0.25" fill-rule="evenodd" clip-rule="evenodd" d="M799.013 2549L823 2563L799.013 2577.02L775 2563.02L799.013 2549Z" fill="url(#paint36_linear_401_18759)"/>
<path opacity="0.25" fill-rule="evenodd" clip-rule="evenodd" d="M775 2563.02V2591L798.972 2605L798.985 2577L775 2563.02Z" fill="url(#paint37_linear_401_18759)"/>
<path opacity="0.25" fill-rule="evenodd" clip-rule="evenodd" d="M823 2563.01V2590.99L798.972 2605L798.986 2577.01L823 2563.01Z" fill="url(#paint38_linear_401_18759)"/>
</g>
<g clip-path="url(#clip11_401_18759)">
<path fill-rule="evenodd" clip-rule="evenodd" d="M315.515 826.196L339.113 840.09L315.515 854.001L291.886 840.108L315.515 826.196Z" fill="url(#paint39_linear_401_18759)"/>
<path fill-rule="evenodd" clip-rule="evenodd" d="M339.113 840.091V867.892L315.502 881.807L315.515 854.002L339.113 840.091Z" fill="url(#paint40_linear_401_18759)"/>
<path fill-rule="evenodd" clip-rule="evenodd" d="M291.887 840.108V867.903L315.502 881.807L315.515 854.002L291.887 840.108Z" fill="url(#paint41_linear_401_18759)"/>
<path opacity="0.25" fill-rule="evenodd" clip-rule="evenodd" d="M315.522 804L358 829.006L315.522 854.044L273 829.034L315.522 804Z" fill="url(#paint42_linear_401_18759)"/>
<path opacity="0.25" fill-rule="evenodd" clip-rule="evenodd" d="M273 829.027V878.998L315.45 904L315.474 854.005L273 829.027Z" fill="url(#paint43_linear_401_18759)"/>
<path opacity="0.25" fill-rule="evenodd" clip-rule="evenodd" d="M358 829.017V878.991L315.45 904L315.474 854.019L358 829.017Z" fill="url(#paint44_linear_401_18759)"/>
</g>
<g clip-path="url(#clip12_401_18759)">
<path d="M1915 2803.01C1859.22 2803.01 1814 2757.79 1814 2702.01C1814 2646.22 1859.22 2601 1915 2601C1970.78 2601 2016 2646.22 2016 2702.01C2016 2757.79 1970.78 2803.01 1915 2803.01Z" fill="url(#paint45_radial_401_18759)"/>
</g>
<g clip-path="url(#clip13_401_18759)">
<path d="M163.5 1646C154.94 1646 148 1639.06 148 1630.5C148 1621.94 154.94 1615 163.5 1615C172.06 1615 179 1621.94 179 1630.5C179 1639.06 172.06 1646 163.5 1646Z" fill="url(#paint46_radial_401_18759)"/>
</g>
<g clip-path="url(#clip14_401_18759)">
<path d="M685.5 2606C680.806 2606 677 2602.2 677 2597.5C677 2592.81 680.806 2589 685.5 2589C690.194 2589 694 2592.81 694 2597.5C694 2602.2 690.194 2606 685.5 2606Z" fill="url(#paint47_radial_401_18759)"/>
</g>
<g clip-path="url(#clip15_401_18759)">
<path fill-rule="evenodd" clip-rule="evenodd" d="M92.1658 2611.87L86.8813 2593.58L54.5896 2602.91L44.0356 2566.32L0.98337 2578.76L-9.58424 2542.18L-52.6514 2554.62L-60.5725 2527.2L-82.0737 2533.41L-66.2201 2588.29L-23.1649 2575.79L-12.5973 2612.37L30.4649 2599.93L38.403 2627.41L92.1658 2611.87Z" fill="url(#paint48_linear_401_18759)"/>
<path fill-rule="evenodd" clip-rule="evenodd" d="M-82.0736 2533.41L-86.1801 2549.4L-70.3209 2604.29L-27.2537 2591.85L-16.6847 2628.44L26.3675 2616L34.2943 2643.44L88.097 2627.9L92.1659 2611.87L38.4031 2627.4L30.465 2599.93L-12.5973 2612.37L-23.1649 2575.79L-66.2371 2588.23L-82.0736 2533.41Z" fill="url(#paint49_linear_401_18759)"/>
</g>
<g clip-path="url(#clip16_401_18759)">
<path d="M1831.5 2574C1822.94 2574 1816 2567.06 1816 2558.5C1816 2549.94 1822.94 2543 1831.5 2543C1840.06 2543 1847 2549.94 1847 2558.5C1847 2567.06 1840.06 2574 1831.5 2574Z" fill="url(#paint50_radial_401_18759)"/>
</g>
<path fill-rule="evenodd" clip-rule="evenodd" d="M1736.04 2593L1694.12 2568.01L1736.04 2543L1778 2567.98L1736.04 2593Z" fill="url(#paint51_linear_401_18759)"/>
<path fill-rule="evenodd" clip-rule="evenodd" d="M1736.06 2643V2593.01L1778 2567.99L1777.97 2617.99L1736.06 2643Z" fill="url(#paint52_linear_401_18759)"/>
<path fill-rule="evenodd" clip-rule="evenodd" d="M1694.12 2568.01V2617.99L1736.06 2643L1736.09 2593L1694.12 2568.01Z" fill="url(#paint53_linear_401_18759)"/>
<g clip-path="url(#clip17_401_18759)">
<path fill-rule="evenodd" clip-rule="evenodd" d="M1091.47 1712.93L1076.38 1711.95L1084.42 1699.13L1099.53 1700.11L1091.47 1712.93Z" fill="url(#paint54_linear_401_18759)"/>
<path fill-rule="evenodd" clip-rule="evenodd" d="M1098.53 1726.73L1091.48 1712.93L1099.53 1700.11L1106.57 1713.92L1098.53 1726.73Z" fill="url(#paint55_linear_401_18759)"/>
<path fill-rule="evenodd" clip-rule="evenodd" d="M1076.38 1711.95L1083.43 1725.75L1098.53 1726.73L1091.49 1712.93L1076.38 1711.95Z" fill="url(#paint56_linear_401_18759)"/>
</g>
<g clip-path="url(#clip18_401_18759)">
<path d="M1178.07 1769.19C1170.44 1773.09 1161.11 1770.07 1157.21 1762.44C1153.32 1754.82 1156.34 1745.48 1163.96 1741.59C1171.58 1737.69 1180.92 1740.71 1184.82 1748.34C1188.71 1755.96 1185.69 1765.3 1178.07 1769.19Z" fill="url(#paint57_radial_401_18759)"/>
</g>
<defs>
<linearGradient id="paint0_linear_401_18759" x1="115.354" y1="251.138" x2="-75.0878" y2="22.4842" gradientUnits="userSpaceOnUse">
<stop offset="0.03" stop-color="#E81F54"/>
<stop offset="1" stop-color="#E24072"/>
</linearGradient>
<linearGradient id="paint1_linear_401_18759" x1="94.779" y1="277.135" x2="-101.63" y2="39.2504" gradientUnits="userSpaceOnUse">
<stop offset="0.03" stop-color="#C91C52"/>
<stop offset="1" stop-color="#C61E52"/>
</linearGradient>
<radialGradient id="paint2_radial_401_18759" cx="0" cy="0" r="1" gradientUnits="userSpaceOnUse" gradientTransform="translate(97.62 24.048) rotate(180) scale(20.5249 20.6337)">
<stop stop-color="#307E99"/>
<stop offset="0.8" stop-color="#0A3556"/>
<stop offset="1" stop-color="#062644"/>
</radialGradient>
<linearGradient id="paint3_linear_401_18759" x1="1760.4" y1="709.986" x2="1640.01" y2="780.335" gradientUnits="userSpaceOnUse">
<stop offset="0.03" stop-color="#E81F54"/>
<stop offset="1" stop-color="#E24072"/>
</linearGradient>
<linearGradient id="paint4_linear_401_18759" x1="1770.82" y1="721.503" x2="1645.71" y2="793.896" gradientUnits="userSpaceOnUse">
<stop offset="0.03" stop-color="#C91C52"/>
<stop offset="1" stop-color="#C61E52"/>
</linearGradient>
<radialGradient id="paint5_radial_401_18759" cx="0" cy="0" r="1" gradientUnits="userSpaceOnUse" gradientTransform="translate(1653.71 692.617) rotate(99.4313) scale(18.2901 18.3489)">
<stop stop-color="#307E99"/>
<stop offset="0.8" stop-color="#0A3556"/>
<stop offset="1" stop-color="#062644"/>
</radialGradient>
<linearGradient id="paint6_linear_401_18759" x1="1836.2" y1="1688.01" x2="1980.54" y2="1516.44" gradientUnits="userSpaceOnUse">
<stop offset="0.03" stop-color="#184660"/>
<stop offset="1" stop-color="#062644"/>
</linearGradient>
<linearGradient id="paint7_linear_401_18759" x1="1851.61" y1="1707.67" x2="2000.48" y2="1529.17" gradientUnits="userSpaceOnUse">
<stop offset="0.03" stop-color="#204056"/>
<stop offset="1" stop-color="#041E33"/>
</linearGradient>
<linearGradient id="paint8_linear_401_18759" x1="197.356" y1="752.52" x2="193.826" y2="767.206" gradientUnits="userSpaceOnUse">
<stop offset="0.03" stop-color="#184660"/>
<stop offset="1" stop-color="#062644"/>
</linearGradient>
<linearGradient id="paint9_linear_401_18759" x1="3841.44" y1="-5211.4" x2="3138.92" y2="-3942.3" gradientUnits="userSpaceOnUse">
<stop offset="0.03" stop-color="#184660"/>
<stop offset="1" stop-color="#062644"/>
</linearGradient>
<linearGradient id="paint10_linear_401_18759" x1="110.326" y1="3110.52" x2="496.15" y2="2412.92" gradientUnits="userSpaceOnUse">
<stop offset="0.03" stop-color="#184660"/>
<stop offset="1" stop-color="#062644"/>
</linearGradient>
<linearGradient id="paint11_linear_401_18759" x1="-8.94663" y1="1767.29" x2="34.9533" y2="1714.81" gradientUnits="userSpaceOnUse">
<stop offset="0.03" stop-color="#184660"/>
<stop offset="1" stop-color="#062644"/>
</linearGradient>
<linearGradient id="paint12_linear_401_18759" x1="-7586.14" y1="-11380.6" x2="124.818" y2="-6061.11" gradientUnits="userSpaceOnUse">
<stop offset="0.03" stop-color="#184660"/>
<stop offset="1" stop-color="#062644"/>
</linearGradient>
<linearGradient id="paint13_linear_401_18759" x1="-10751.5" y1="-9205.73" x2="-6515.65" y2="-6279.62" gradientUnits="userSpaceOnUse">
<stop offset="0.03" stop-color="#184660"/>
<stop offset="1" stop-color="#062644"/>
</linearGradient>
<linearGradient id="paint14_linear_401_18759" x1="-36253.7" y1="-3576.05" x2="-27215.5" y2="15139.3" gradientUnits="userSpaceOnUse">
<stop offset="0.03" stop-color="#184660"/>
<stop offset="1" stop-color="#062644"/>
</linearGradient>
<linearGradient id="paint15_linear_401_18759" x1="-24119.7" y1="-24750" x2="-10428.4" y2="-15294.3" gradientUnits="userSpaceOnUse">
<stop offset="0.03" stop-color="#184660"/>
<stop offset="1" stop-color="#062644"/>
</linearGradient>
<linearGradient id="paint16_linear_401_18759" x1="-14005.8" y1="-31783.5" x2="10951" y2="-14519.5" gradientUnits="userSpaceOnUse">
<stop offset="0.03" stop-color="#184660"/>
<stop offset="1" stop-color="#062644"/>
</linearGradient>
<radialGradient id="paint17_radial_401_18759" cx="0" cy="0" r="1" gradientUnits="userSpaceOnUse" gradientTransform="translate(91.7086 1664.65) rotate(180) scale(8.30967 8.3139)">
<stop stop-color="#EA6CA5"/>
<stop offset="0.8" stop-color="#E23369"/>
<stop offset="1" stop-color="#D1225A"/>
</radialGradient>
<linearGradient id="paint18_linear_401_18759" x1="173.818" y1="88.5395" x2="188.782" y2="70.9186" gradientUnits="userSpaceOnUse">
<stop offset="0.03" stop-color="#184660"/>
<stop offset="1" stop-color="#062644"/>
</linearGradient>
<linearGradient id="paint19_linear_401_18759" x1="-2363.66" y1="-4381.76" x2="243.727" y2="-2610.08" gradientUnits="userSpaceOnUse">
<stop offset="0.03" stop-color="#184660"/>
<stop offset="1" stop-color="#062644"/>
</linearGradient>
<linearGradient id="paint20_linear_401_18759" x1="-3423.67" y1="-3642.29" x2="-1991.35" y2="-2667.73" gradientUnits="userSpaceOnUse">
<stop offset="0.03" stop-color="#184660"/>
<stop offset="1" stop-color="#062644"/>
</linearGradient>
<linearGradient id="paint21_linear_401_18759" x1="-11964" y1="-1728.2" x2="-8862.1" y2="4598.17" gradientUnits="userSpaceOnUse">
<stop offset="0.03" stop-color="#184660"/>
<stop offset="1" stop-color="#062644"/>
</linearGradient>
<linearGradient id="paint22_linear_401_18759" x1="-7900.47" y1="-8927.36" x2="-3270.83" y2="-5778.06" gradientUnits="userSpaceOnUse">
<stop offset="0.03" stop-color="#184660"/>
<stop offset="1" stop-color="#062644"/>
</linearGradient>
<linearGradient id="paint23_linear_401_18759" x1="-4513.5" y1="-11318.7" x2="3925.73" y2="-5568.7" gradientUnits="userSpaceOnUse">
<stop offset="0.03" stop-color="#184660"/>
<stop offset="1" stop-color="#062644"/>
</linearGradient>
<linearGradient id="paint24_linear_401_18759" x1="-11.2324" y1="2479.35" x2="32.1876" y2="2426.38" gradientUnits="userSpaceOnUse">
<stop offset="0.03" stop-color="#E81F54"/>
<stop offset="1" stop-color="#E24072"/>
</linearGradient>
<linearGradient id="paint25_linear_401_18759" x1="-3042.65" y1="13122.4" x2="2398.48" y2="9290.7" gradientUnits="userSpaceOnUse">
<stop offset="0.03" stop-color="#E81F54"/>
<stop offset="1" stop-color="#E24072"/>
</linearGradient>
<linearGradient id="paint26_linear_401_18759" x1="-5322.13" y1="11598.5" x2="-2332.68" y2="9491.58" gradientUnits="userSpaceOnUse">
<stop offset="0.03" stop-color="#E81F54"/>
<stop offset="1" stop-color="#E24072"/>
</linearGradient>
<linearGradient id="paint27_linear_401_18759" x1="1738.02" y1="1524.52" x2="1755.62" y2="1503.73" gradientUnits="userSpaceOnUse">
<stop offset="0.03" stop-color="#E81F54"/>
<stop offset="1" stop-color="#E24072"/>
</linearGradient>
<linearGradient id="paint28_linear_401_18759" x1="-1257.61" y1="-27589.7" x2="1813.98" y2="-25495.1" gradientUnits="userSpaceOnUse">
<stop offset="0.03" stop-color="#E81F54"/>
<stop offset="1" stop-color="#E24072"/>
</linearGradient>
<linearGradient id="paint29_linear_401_18759" x1="-2509.02" y1="-26709.3" x2="-821.799" y2="-25557.4" gradientUnits="userSpaceOnUse">
<stop offset="0.03" stop-color="#E81F54"/>
<stop offset="1" stop-color="#E24072"/>
</linearGradient>
<linearGradient id="paint30_linear_401_18759" x1="-12591.3" y1="-29229.7" x2="-8949.95" y2="-21776.6" gradientUnits="userSpaceOnUse">
<stop offset="0.03" stop-color="#E81F54"/>
<stop offset="1" stop-color="#E24072"/>
</linearGradient>
<linearGradient id="paint31_linear_401_18759" x1="-7794.12" y1="-51954.2" x2="-2340.58" y2="-48231.6" gradientUnits="userSpaceOnUse">
<stop offset="0.03" stop-color="#E81F54"/>
<stop offset="1" stop-color="#E24072"/>
</linearGradient>
<linearGradient id="paint32_linear_401_18759" x1="-3795.62" y1="-54773.6" x2="6145.11" y2="-47977.4" gradientUnits="userSpaceOnUse">
<stop offset="0.03" stop-color="#E81F54"/>
<stop offset="1" stop-color="#E24072"/>
</linearGradient>
<linearGradient id="paint33_linear_401_18759" x1="794.212" y1="2575.05" x2="804.051" y2="2563.33" gradientUnits="userSpaceOnUse">
<stop offset="0.03" stop-color="#E81F54"/>
<stop offset="1" stop-color="#E24072"/>
</linearGradient>
<linearGradient id="paint34_linear_401_18759" x1="-897.44" y1="-13728.9" x2="827.866" y2="-12542.5" gradientUnits="userSpaceOnUse">
<stop offset="0.03" stop-color="#E81F54"/>
<stop offset="1" stop-color="#E24072"/>
</linearGradient>
<linearGradient id="paint35_linear_401_18759" x1="-1604.12" y1="-13235.9" x2="-656.419" y2="-12583.4" gradientUnits="userSpaceOnUse">
<stop offset="0.03" stop-color="#E81F54"/>
<stop offset="1" stop-color="#E24072"/>
</linearGradient>
<linearGradient id="paint36_linear_401_18759" x1="-7297.64" y1="-14647.3" x2="-5268.99" y2="-10460.2" gradientUnits="userSpaceOnUse">
<stop offset="0.03" stop-color="#E81F54"/>
<stop offset="1" stop-color="#E24072"/>
</linearGradient>
<linearGradient id="paint37_linear_401_18759" x1="-4588.65" y1="-27373" x2="-1525.43" y2="-25264.5" gradientUnits="userSpaceOnUse">
<stop offset="0.03" stop-color="#E81F54"/>
<stop offset="1" stop-color="#E24072"/>
</linearGradient>
<linearGradient id="paint38_linear_401_18759" x1="-2330.67" y1="-28951.9" x2="3252.9" y2="-25102.5" gradientUnits="userSpaceOnUse">
<stop offset="0.03" stop-color="#E81F54"/>
<stop offset="1" stop-color="#E24072"/>
</linearGradient>
<linearGradient id="paint39_linear_401_18759" x1="307.021" y1="850.517" x2="324.616" y2="829.726" gradientUnits="userSpaceOnUse">
<stop offset="0.03" stop-color="#E81F54"/>
<stop offset="1" stop-color="#E24072"/>
</linearGradient>
<linearGradient id="paint40_linear_401_18759" x1="-2688.61" y1="-28263.7" x2="382.984" y2="-26169.1" gradientUnits="userSpaceOnUse">
<stop offset="0.03" stop-color="#E81F54"/>
<stop offset="1" stop-color="#E24072"/>
</linearGradient>
<linearGradient id="paint41_linear_401_18759" x1="-3940.02" y1="-27383.3" x2="-2252.8" y2="-26231.4" gradientUnits="userSpaceOnUse">
<stop offset="0.03" stop-color="#E81F54"/>
<stop offset="1" stop-color="#E24072"/>
</linearGradient>
<linearGradient id="paint42_linear_401_18759" x1="-14022.3" y1="-29903.7" x2="-10380.9" y2="-22450.6" gradientUnits="userSpaceOnUse">
<stop offset="0.03" stop-color="#E81F54"/>
<stop offset="1" stop-color="#E24072"/>
</linearGradient>
<linearGradient id="paint43_linear_401_18759" x1="-9225.12" y1="-52628.2" x2="-3771.58" y2="-48905.6" gradientUnits="userSpaceOnUse">
<stop offset="0.03" stop-color="#E81F54"/>
<stop offset="1" stop-color="#E24072"/>
</linearGradient>
<linearGradient id="paint44_linear_401_18759" x1="-5226.62" y1="-55447.6" x2="4714.11" y2="-48651.4" gradientUnits="userSpaceOnUse">
<stop offset="0.03" stop-color="#E81F54"/>
<stop offset="1" stop-color="#E24072"/>
</linearGradient>
<radialGradient id="paint45_radial_401_18759" cx="0" cy="0" r="1" gradientUnits="userSpaceOnUse" gradientTransform="translate(1964.47 2668.52) rotate(180) scale(163.464 164.162)">
<stop stop-color="#EA6CA5"/>
<stop offset="0.8" stop-color="#E23369"/>
<stop offset="1" stop-color="#D1225A"/>
</radialGradient>
<radialGradient id="paint46_radial_401_18759" cx="0" cy="0" r="1" gradientUnits="userSpaceOnUse" gradientTransform="translate(171.091 1625.36) rotate(180) scale(25.086 25.1932)">
<stop stop-color="#EA6CA5"/>
<stop offset="0.8" stop-color="#E23369"/>
<stop offset="1" stop-color="#D1225A"/>
</radialGradient>
<radialGradient id="paint47_radial_401_18759" cx="0" cy="0" r="1" gradientUnits="userSpaceOnUse" gradientTransform="translate(689.663 2594.68) rotate(180) scale(13.7569 13.8156)">
<stop stop-color="#EA6CA5"/>
<stop offset="0.8" stop-color="#E23369"/>
<stop offset="1" stop-color="#D1225A"/>
</radialGradient>
<linearGradient id="paint48_linear_401_18759" x1="-76.6715" y1="2549.37" x2="78.9954" y2="2619.05" gradientUnits="userSpaceOnUse">
<stop offset="0.03" stop-color="#184660"/>
<stop offset="1" stop-color="#062644"/>
</linearGradient>
<linearGradient id="paint49_linear_401_18759" x1="-87.8297" y1="2564.76" x2="73.8583" y2="2636.3" gradientUnits="userSpaceOnUse">
<stop offset="0.03" stop-color="#204056"/>
<stop offset="1" stop-color="#041E33"/>
</linearGradient>
<radialGradient id="paint50_radial_401_18759" cx="0" cy="0" r="1" gradientUnits="userSpaceOnUse" gradientTransform="translate(1839.09 2553.36) rotate(180) scale(25.086 25.1932)">
<stop stop-color="#307E99"/>
<stop offset="0.8" stop-color="#0A3556"/>
<stop offset="1" stop-color="#062644"/>
</radialGradient>
<linearGradient id="paint51_linear_401_18759" x1="1751.12" y1="2549.26" x2="1719.42" y2="2586.26" gradientUnits="userSpaceOnUse">
<stop offset="0.03" stop-color="#184660"/>
<stop offset="1" stop-color="#062644"/>
</linearGradient>
<linearGradient id="paint52_linear_401_18759" x1="20973.2" y1="-9232.62" x2="17092.3" y2="-6618.42" gradientUnits="userSpaceOnUse">
<stop offset="0.03" stop-color="#184660"/>
<stop offset="1" stop-color="#062644"/>
</linearGradient>
<linearGradient id="paint53_linear_401_18759" x1="-1960.24" y1="9194.78" x2="172.052" y2="7757.3" gradientUnits="userSpaceOnUse">
<stop offset="0.03" stop-color="#184660"/>
<stop offset="1" stop-color="#062644"/>
</linearGradient>
<linearGradient id="paint54_linear_401_18759" x1="1089.47" y1="1698.73" x2="1085.94" y2="1713.42" gradientUnits="userSpaceOnUse">
<stop offset="0.03" stop-color="#184660"/>
<stop offset="1" stop-color="#062644"/>
</linearGradient>
<linearGradient id="paint55_linear_401_18759" x1="4733.55" y1="-4265.19" x2="4031.03" y2="-2996.09" gradientUnits="userSpaceOnUse">
<stop offset="0.03" stop-color="#184660"/>
<stop offset="1" stop-color="#062644"/>
</linearGradient>
<linearGradient id="paint56_linear_401_18759" x1="1002.44" y1="4056.74" x2="1388.26" y2="3359.13" gradientUnits="userSpaceOnUse">
<stop offset="0.03" stop-color="#184660"/>
<stop offset="1" stop-color="#062644"/>
</linearGradient>
<radialGradient id="paint57_radial_401_18759" cx="0" cy="0" r="1" gradientUnits="userSpaceOnUse" gradientTransform="translate(1175.43 1747.36) rotate(152.931) scale(25.086 25.1932)">
<stop stop-color="#307E99"/>
<stop offset="0.8" stop-color="#0A3556"/>
<stop offset="1" stop-color="#062644"/>
</radialGradient>
<clipPath id="clip0_401_18759">
<rect width="25.3636" height="25.3896" fill="white" transform="matrix(-1 0 0 1 104.091 15.5613)"/>
</clipPath>
<clipPath id="clip1_401_18759">
<rect width="114" height="125" fill="white" transform="matrix(-0.163865 0.986483 0.986483 0.163865 1646.69 677)"/>
</clipPath>
<clipPath id="clip2_401_18759">
<rect width="22.6019" height="22.5782" fill="white" transform="matrix(-0.163865 0.986483 0.986483 0.163865 1647.21 685.692)"/>
</clipPath>
<clipPath id="clip3_401_18759">
<rect width="182" height="202" fill="white" transform="matrix(-1 0 0 1 1996 1498)"/>
</clipPath>
<clipPath id="clip4_401_18759">
<rect width="26" height="31" fill="white" transform="matrix(-0.890463 0.455056 0.455056 0.890463 203.893 747)"/>
</clipPath>
<clipPath id="clip5_401_18759">
<rect width="215" height="250" fill="white" transform="matrix(-1 0 0 1 120 1651)"/>
</clipPath>
<clipPath id="clip6_401_18759">
<rect width="10.2687" height="10.2302" fill="white" transform="matrix(-1 0 0 1 94.3284 1661.23)"/>
</clipPath>
<clipPath id="clip7_401_18759">
<rect width="72" height="85" fill="white" transform="matrix(-1 0 0 1 217 49)"/>
</clipPath>
<clipPath id="clip8_401_18759">
<rect width="121" height="138" fill="white" transform="matrix(-1 0 0 1 71 2419)"/>
</clipPath>
<clipPath id="clip9_401_18759">
<rect width="85" height="100" fill="white" transform="matrix(-1 0 0 1 1789 1478)"/>
</clipPath>
<clipPath id="clip10_401_18759">
<rect width="48" height="56" fill="white" transform="matrix(-1 0 0 1 823 2549)"/>
</clipPath>
<clipPath id="clip11_401_18759">
<rect width="85" height="100" fill="white" transform="matrix(-1 0 0 1 358 804)"/>
</clipPath>
<clipPath id="clip12_401_18759">
<rect width="202" height="202" fill="white" transform="matrix(-1 0 0 1 2016 2601)"/>
</clipPath>
<clipPath id="clip13_401_18759">
<rect width="31" height="31" fill="white" transform="matrix(-1 0 0 1 179 1615)"/>
</clipPath>
<clipPath id="clip14_401_18759">
<rect width="17" height="17" fill="white" transform="matrix(-1 0 0 1 694 2589)"/>
</clipPath>
<clipPath id="clip15_401_18759">
<rect width="138" height="154" fill="white" transform="matrix(-0.277536 -0.960715 -0.960715 0.277536 96.125 2625.58)"/>
</clipPath>
<clipPath id="clip16_401_18759">
<rect width="31" height="31" fill="white" transform="matrix(-1 0 0 1 1847 2543)"/>
</clipPath>
<clipPath id="clip17_401_18759">
<rect width="26" height="31" fill="white" transform="matrix(-0.890463 0.455056 0.455056 0.890463 1096 1693.21)"/>
</clipPath>
<clipPath id="clip18_401_18759">
<rect width="31" height="31" fill="white" transform="matrix(-0.890463 0.455056 0.455056 0.890463 1177.76 1734.53)"/>
</clipPath>
</defs>
</svg>
