<svg width="149" height="218" viewBox="0 0 149 218" fill="none" xmlns="http://www.w3.org/2000/svg">
<path d="M162.858 161.025L152.164 186.485L114.346 199.41L102.443 180.192L162.858 161.025Z" fill="#062644"/>
<path d="M82.0064 182.312L74.7865 168.256L76.2595 164.39L79.2391 164.412L79.9113 166.173L84.8509 162.963L96.9367 131.248L89.9986 120.223L99.8347 116.868L105.601 122.882L83.1205 181.875L82.0064 182.312Z" fill="#062644"/>
<path d="M191.866 96.8569L184.321 88.8829L173.734 78.1167L56.9513 102.239L83.7797 127.651L191.866 96.8569Z" fill="#062644"/>
<path d="M82.3854 162.472L47.6539 178.758L69.1577 126.585L44.4982 93.7563L60.4999 95.8611L75.5844 93.1507C76.2797 94.2121 93.7049 112.852 93.7049 112.852L97.9576 126.546L82.3854 162.472Z" fill="#EC144D"/>
<path d="M47.6777 177.666L68.9977 124.801L44.3795 91.4967L39.8277 92.7534L20.5993 144.697L43.1354 179.232L47.6777 177.666Z" fill="#062644"/>
<path d="M131.034 87.7074C143.367 72.3559 146.023 47.6604 133.727 36.263C121.986 25.3908 102.205 31.8002 90.3873 46.6152C80.1147 59.594 76.2071 78.6432 82.5393 90.688C91.1137 106.982 116.32 106.014 131.034 87.7074Z" fill="#062644"/>
<path d="M179.317 85.7468C191.665 70.3858 194.305 45.7 182.02 34.3058C170.284 23.4209 150.498 29.843 138.68 44.6579C128.408 57.6366 124.5 76.6857 130.822 88.6991C139.406 105.025 164.603 104.053 179.317 85.7468Z" fill="#062644"/>
<path d="M150.496 89.0435C140.192 85.8748 135.969 72.8738 141.065 60.0048C146.16 47.1357 158.644 39.272 168.949 42.4406C179.253 45.6092 183.476 58.6103 178.381 71.4793C173.285 84.3483 160.801 92.2121 150.496 89.0435Z" fill="#EC144D"/>
<path d="M103.166 90.4397C92.8613 87.2711 88.6385 74.27 93.734 61.401C98.8295 48.532 111.314 40.6683 121.618 43.8369C131.923 47.0055 136.145 60.0066 131.05 72.8756C125.954 85.7446 113.47 93.6083 103.166 90.4397Z" fill="#EC144D"/>
<path d="M47.2415 177.536L68.2589 125.42L43.8986 92.5566L39.4092 93.7913L20.4449 145.001L42.7423 179.074L47.2415 177.536Z" stroke="#F0EAD8" stroke-width="3" stroke-miterlimit="10"/>
<path d="M165.867 159.682L191.468 95.0628L188.063 92.5633L109.04 117.819L92.5597 94.4655L81.8356 96.6681L99.3683 115.972L104.286 130.246L81.738 186.731L165.867 159.682Z" fill="#EC144D"/>
<path d="M158.574 145.432L165.746 127.33L127.26 135.809L120.113 153.847L158.574 145.432Z" fill="#062644"/>
<path d="M165.42 127.259L164.399 125.685L125.524 133.877L126.26 135.674L165.42 127.259Z" fill="#062644"/>
</svg>
