<svg width="54" height="41" viewBox="0 0 54 41" fill="none" xmlns="http://www.w3.org/2000/svg">
<path d="M49.2 30.2C49.2 33.1333 48.2667 35.6 46.4 37.6C44.6667 39.6 42.1333 40.6 38.8 40.6C31.7333 40.6 28.2 37.0667 28.2 30C28.2 26.4 29.1333 22.8667 31 19.4C33 15.8 35.2667 12.6 37.8 9.8C40.3333 6.86666 42.8 4.53333 45.2 2.79999C47.7333 1.06666 49.5333 0.199988 50.6 0.199988C52.4667 0.199988 53.4 1.06666 53.4 2.79999C53.4 3.73333 53.0667 4.73333 52.4 5.8C51.7333 6.86666 51 8.13333 50.2 9.6C49.4 10.9333 48.6667 12.5333 48 14.4C47.3333 16.1333 47 18.2 47 20.6C47 22.4667 47.3333 24 48 25.2C48.8 26.4 49.2 28.0667 49.2 30.2ZM21.8 30.2C21.8 33.1333 20.8667 35.6 19 37.6C17.1333 39.6 14.5333 40.6 11.2 40.6C4.13333 40.6 0.6 37.0667 0.6 30C0.6 26.4 1.53333 22.8667 3.4 19.4C5.4 15.8 7.66667 12.6 10.2 9.8C12.8667 6.86666 15.4 4.53333 17.8 2.79999C20.3333 1.06666 22.1333 0.199988 23.2 0.199988C25.0667 0.199988 26 1.06666 26 2.79999C26 3.73333 25.6667 4.73333 25 5.8C24.3333 6.86666 23.6 8.13333 22.8 9.6C22 10.9333 21.2667 12.5333 20.6 14.4C19.9333 16.1333 19.6 18.2 19.6 20.6C19.6 22.4667 19.9333 24 20.6 25.2C21.4 26.4 21.8 28.0667 21.8 30.2Z" fill="#062A51" fill-opacity="0.06"/>
</svg>
