<svg width="142" height="144" viewBox="0 0 142 144" fill="none" xmlns="http://www.w3.org/2000/svg">
<path d="M71 0.0836182C31.7873 0.0836182 0 32.0948 0 71.5836C0 111.072 31.7873 143.084 71 143.084C110.213 143.084 142 111.072 142 71.5836C142 32.0948 110.213 0.0836182 71 0.0836182ZM53.6198 101.219H39.2423V54.6247H53.6198V101.219ZM46.3423 48.9047C41.8012 48.9047 38.8651 45.6649 38.8651 41.6579C38.8651 37.569 41.89 34.426 46.5272 34.426C51.1644 34.426 54.0044 37.569 54.0931 41.6579C54.0931 45.6649 51.1644 48.9047 46.3423 48.9047ZM106.13 101.219H91.7527V75.397C91.7527 69.3865 89.6671 65.305 84.4678 65.305C80.4963 65.305 78.137 68.0682 77.0942 70.7271C76.7096 71.673 76.6134 73.0136 76.6134 74.3468V101.211H62.2285V69.4833C62.2285 63.6665 62.0436 58.803 61.8514 54.6173H74.3429L75.0011 61.0895H75.2896C77.1829 58.0508 81.8201 53.5671 89.5783 53.5671C99.0376 53.5671 106.13 59.95 106.13 73.669V101.219V101.219Z" fill="#F0EAD8"/>
</svg>