<svg width="30" height="30" viewBox="0 0 30 30" fill="none" xmlns="http://www.w3.org/2000/svg">
<path d="M5.74999 26.0999C5.74999 26.0999 3.89999 26.0999 3.89999 24.2499C3.89999 22.3999 5.74999 16.8499 15 16.8499C24.25 16.8499 26.1 22.3999 26.1 24.2499C26.1 26.0999 24.25 26.0999 24.25 26.0999H5.74999ZM15 14.9999C16.4719 14.9999 17.8836 14.4152 18.9244 13.3743C19.9653 12.3335 20.55 10.9219 20.55 9.4499C20.55 7.97795 19.9653 6.56629 18.9244 5.52546C17.8836 4.48463 16.4719 3.8999 15 3.8999C13.528 3.8999 12.1164 4.48463 11.0756 5.52546C10.0347 6.56629 9.44999 7.97795 9.44999 9.4499C9.44999 10.9219 10.0347 12.3335 11.0756 13.3743C12.1164 14.4152 13.528 14.9999 15 14.9999Z" fill="#F0EAD8"/>
</svg>
