<svg width="148" height="148" viewBox="0 0 148 148" fill="none" xmlns="http://www.w3.org/2000/svg">
<path d="M148 74.0389C148 33.1832 114.853 0.0836182 74 0.0836182C33.1196 0.0836182 0 33.1832 0 74.0389C0 110.943 27.0516 141.542 62.4375 147.084V95.4212H43.6461V74.0435H62.4375V57.741C62.4375 39.2106 73.4681 28.977 90.3771 28.977C98.4755 28.977 106.953 30.4192 106.953 30.4192V48.6168H97.606C88.43 48.6168 85.5625 54.3252 85.5625 60.1723V74.0389H106.084L102.786 95.4166H85.5625V147.079C120.921 141.537 148 110.938 148 74.0343V74.0389Z" fill="#F0EAD8"/>
</svg>