<svg width="149" height="149" viewBox="0 0 149 149" fill="none" xmlns="http://www.w3.org/2000/svg">
<path fill-rule="evenodd" clip-rule="evenodd" d="M74.2755 148.551C115.297 148.551 148.551 115.297 148.551 74.2755C148.551 33.2543 115.297 0 74.2755 0C33.2543 0 0 33.2543 0 74.2755C0 115.297 33.2543 148.551 74.2755 148.551ZM49.8728 74.2117C49.8728 60.7497 60.7372 49.8851 74.199 49.8851C87.6607 49.8851 98.5251 60.7497 98.5251 74.2117C98.5251 87.6737 87.6607 98.5382 74.199 98.5382C60.7372 98.5382 49.8728 87.6737 49.8728 74.2117ZM58.3888 74.2117C58.3888 82.9175 65.4933 90.0222 74.199 90.0222C82.9046 90.0222 90.0091 82.9175 90.0091 74.2117C90.0091 65.5058 82.9046 58.4012 74.199 58.4012C65.4933 58.4012 58.3888 65.5058 58.3888 74.2117ZM93.8401 48.9007C93.8401 45.7576 96.3783 43.2194 99.5213 43.2194C100.268 43.2184 101.007 43.3647 101.697 43.6499C102.386 43.9351 103.013 44.3535 103.541 44.8813C104.068 45.409 104.487 46.0357 104.772 46.7254C105.057 47.4151 105.204 48.1543 105.203 48.9007C105.203 52.0557 102.664 54.582 99.5213 54.582C96.3783 54.582 93.8401 52.0438 93.8401 48.9007ZM121.619 71.8168C121.619 72.6143 121.618 73.4126 121.618 74.2117C121.618 75.1054 121.619 75.9979 121.62 76.8896C121.629 82.5309 121.637 88.1388 121.309 93.7821C120.942 101.373 119.222 108.098 113.659 113.661C108.108 119.212 101.372 120.943 93.7808 121.311C88.0433 121.634 82.3423 121.628 76.6057 121.621C75.8081 121.62 75.0099 121.619 74.2108 121.619C73.4133 121.619 72.6165 121.62 71.8203 121.621C66.0913 121.628 60.3889 121.634 54.6408 121.311C47.05 120.943 40.3251 119.224 34.7624 113.661C29.2117 108.11 27.48 101.373 27.1123 93.7821C26.7895 88.0441 26.7959 82.3336 26.8022 76.6024C26.8031 75.806 26.804 75.0091 26.804 74.2117C26.804 73.4142 26.8031 72.6174 26.8022 71.8211C26.7959 66.0921 26.7895 60.3896 27.1123 54.6413C27.48 47.0504 29.1998 40.3253 34.7624 34.7626C40.3132 29.2117 47.05 27.48 54.6408 27.1123C60.3783 26.7895 66.0793 26.7959 71.8159 26.8022C72.6134 26.8031 73.4117 26.804 74.2108 26.804C75.0083 26.804 75.8051 26.8031 76.6014 26.8022C82.3303 26.7959 88.0327 26.7895 93.7808 27.1123C101.372 27.48 108.097 29.1999 113.659 34.7626C119.21 40.3134 120.942 47.0504 121.309 54.6413C121.632 60.379 121.626 66.08 121.619 71.8168ZM107.598 107.612C109.271 105.951 110.314 104.338 111.18 102.18C113.312 96.814 113.198 85.1057 113.125 77.5345C113.113 76.3023 113.102 75.1796 113.102 74.2117C113.102 73.2409 113.113 72.1141 113.125 70.877C113.199 63.303 113.313 51.5949 111.192 46.232C110.326 44.0733 109.283 42.4721 107.61 40.7997C105.95 39.1274 104.337 38.0836 102.178 37.2178C96.8153 35.0971 85.1074 35.2113 77.5335 35.2851C76.2965 35.2972 75.1698 35.3082 74.199 35.3082C73.2281 35.3082 72.1014 35.2972 70.8644 35.2851C63.2905 35.2113 51.5826 35.0971 46.2198 37.2178C44.0611 38.0836 42.46 39.1392 40.7876 40.7997C39.1153 42.4603 38.0715 44.0733 37.2057 46.232C35.0851 51.5949 35.1993 63.303 35.2731 70.8771C35.2852 72.1141 35.2962 73.2409 35.2962 74.2117C35.2962 75.1826 35.2852 76.3093 35.2731 77.5461C35.1992 85.1179 35.0851 96.8184 37.2057 102.191C38.0715 104.35 39.1153 105.951 40.7876 107.624C42.4481 109.296 44.0611 110.34 46.2198 111.206C51.5826 113.326 63.2905 113.212 70.8644 113.138C72.1014 113.126 73.2281 113.115 74.199 113.115C75.1668 113.115 76.2895 113.126 77.5217 113.138C85.0928 113.212 96.8008 113.326 102.166 111.194C104.325 110.328 105.926 109.284 107.598 107.612Z" fill="#F0EAD8"/>
</svg>