<svg width="44" height="44" viewBox="0 0 44 44" fill="none" xmlns="http://www.w3.org/2000/svg">
<path fill-rule="evenodd" clip-rule="evenodd" d="M44 22C44 34.1503 34.1503 44 22 44C9.84974 44 0 34.1503 0 22C0 9.84974 9.84974 0 22 0C34.1503 0 44 9.84974 44 22ZM14.1486 19.4293C14.3706 19.4293 14.5835 19.5195 14.7404 19.6802C14.8974 19.8409 14.9856 20.0589 14.9856 20.2862V21.9999C14.9856 23.818 15.691 25.5616 16.9467 26.8472C18.2024 28.1328 19.9054 28.855 21.6812 28.855C23.457 28.855 25.1601 28.1328 26.4158 26.8472C27.6714 25.5616 28.3769 23.818 28.3769 21.9999V20.2862C28.3769 20.0589 28.4651 19.8409 28.622 19.6802C28.779 19.5195 28.9919 19.4293 29.2138 19.4293C29.4358 19.4293 29.6487 19.5195 29.8057 19.6802C29.9626 19.8409 30.0508 20.0589 30.0508 20.2862V21.9999C30.0508 24.1242 29.2801 26.1727 27.8883 27.7481C26.4964 29.3235 24.5826 30.3135 22.5182 30.5259V33.9963H27.5399C27.7619 33.9963 27.9748 34.0866 28.1317 34.2473C28.2887 34.408 28.3769 34.6259 28.3769 34.8532C28.3769 35.0804 28.2887 35.2984 28.1317 35.4591C27.9748 35.6198 27.7619 35.7101 27.5399 35.7101H15.8225C15.6006 35.7101 15.3877 35.6198 15.2307 35.4591C15.0738 35.2984 14.9856 35.0804 14.9856 34.8532C14.9856 34.6259 15.0738 34.408 15.2307 34.2473C15.3877 34.0866 15.6006 33.9963 15.8225 33.9963H20.8443V30.5259C18.7798 30.3135 16.866 29.3235 15.4742 27.7481C14.0823 26.1727 13.3116 24.1242 13.3117 21.9999V20.2862C13.3117 20.0589 13.3998 19.8409 13.5568 19.6802C13.7138 19.5195 13.9266 19.4293 14.1486 19.4293ZM24.0485 24.4236C24.6763 23.7808 25.0291 22.909 25.0291 21.9999V13.4311C25.0291 12.522 24.6763 11.6502 24.0485 11.0075C23.4207 10.3647 22.5691 10.0035 21.6812 10.0035C20.7933 10.0035 19.9418 10.3647 19.314 11.0075C18.6861 11.6502 18.3334 12.522 18.3334 13.4311V21.9999C18.3334 22.909 18.6861 23.7808 19.314 24.4236C19.9418 25.0663 20.7933 25.4275 21.6812 25.4275C22.5691 25.4275 23.4207 25.0663 24.0485 24.4236ZM18.1303 9.79563C19.0721 8.83145 20.3494 8.28978 21.6812 8.28978C23.0131 8.28978 24.2904 8.83145 25.2321 9.79563C26.1739 10.7598 26.703 12.0675 26.703 13.4311V21.9999C26.703 23.3635 26.1739 24.6712 25.2321 25.6354C24.2904 26.5996 23.0131 27.1412 21.6812 27.1412C20.3494 27.1412 19.0721 26.5996 18.1303 25.6354C17.1886 24.6712 16.6595 23.3635 16.6595 21.9999V13.4311C16.6595 12.0675 17.1886 10.7598 18.1303 9.79563Z" fill="#E81F54"/>
</svg>
