<svg width="57" height="85" viewBox="0 0 57 85" fill="none" xmlns="http://www.w3.org/2000/svg">
<g clip-path="url(#clip0_38_1266)">
<path d="M45.9882 36.254C46.5151 36.5229 47.0232 36.8269 47.5088 37.1638C48.2225 37.5949 48.9149 38.0552 49.618 38.5048C49.9588 38.7111 50.2837 38.9438 50.6299 39.1422C51.7245 39.8246 52.811 40.5149 53.9108 41.1841C54.5595 41.6308 55.2354 42.0371 55.9347 42.4008C56.0807 42.4844 56.2062 42.5992 56.3022 42.7367C56.446 42.9033 56.3422 43.0435 56.2676 43.1942C56.2517 43.2369 56.2517 43.2838 56.2676 43.3265C56.4594 43.7523 56.3528 44.2258 56.502 44.649C56.5926 45.0148 56.6461 45.3887 56.6618 45.7651C56.7704 46.2509 56.8407 46.7443 56.8721 47.241C56.8836 47.4072 56.9214 47.5705 56.984 47.725C57.0585 47.9895 56.9361 48.1984 56.6644 48.1984C56.4371 48.2119 56.2187 48.2909 56.0359 48.4259C55.3329 48.8412 54.6272 49.2511 53.9215 49.6637C53.7351 49.8462 53.4528 49.8859 53.277 50.0843C52.7444 50.5657 52.068 50.8434 51.4528 51.1978C48.4773 52.917 45.4991 54.63 42.5183 56.3369C40.015 57.7784 37.5037 59.2093 35.0138 60.6693C34.8824 60.7467 34.742 60.808 34.5957 60.8518C34.4767 60.882 34.3676 60.9421 34.2788 61.0263C34.1078 61.1749 33.9135 61.2946 33.7036 61.3808C33.5677 61.4254 33.4426 61.4974 33.3361 61.5924C31.5358 62.6503 29.7276 63.7083 27.8981 64.7266C27.7823 64.7647 27.6715 64.8162 27.5679 64.88L27.472 64.9567C27.4237 64.9967 27.373 65.0338 27.3202 65.0678C25.3975 66.176 23.4828 67.3054 21.5441 68.3872C21.3042 68.4893 21.0772 68.6189 20.8676 68.7733C18.9582 69.8815 17.0568 71.003 15.1314 72.0821C14.4657 72.4551 13.8159 72.8518 13.1501 73.2195C12.4843 73.5871 12.0396 73.3993 11.8319 72.6349C11.8071 72.5634 11.7936 72.4884 11.792 72.4127C11.8639 71.4368 11.5576 70.4899 11.5896 69.5166C11.6153 69.2758 11.5711 69.0327 11.462 68.8162C11.353 68.5996 11.1838 68.4186 10.9744 68.2946C8.93627 66.9898 6.89992 65.6814 4.86535 64.3695L1.79485 62.3911C1.67071 62.3305 1.57521 62.2242 1.52854 62.0949L0.947998 61.677C1.03936 61.5104 1.18089 61.3763 1.35278 61.2935C2.18366 60.738 3.05447 60.2487 3.93062 59.7647C4.06676 59.6981 4.19383 59.6145 4.30877 59.5161C4.84138 59.0426 5.52579 58.7993 6.12231 58.4132C6.57769 58.1196 7.07569 57.8842 7.54438 57.6197C10.9637 55.6889 14.3991 53.7819 17.8184 51.8537C19.3177 51.0074 20.8144 50.161 22.3456 49.3543C22.5023 49.3142 22.6503 49.2461 22.7824 49.1533L22.8783 49.0845C22.9439 49.0377 23.0062 48.9865 23.0647 48.9311C24.018 48.4021 24.9474 47.8229 25.9248 47.3441C26.0818 47.3187 26.23 47.2551 26.3562 47.159L26.4547 47.0929C26.5213 47.0453 26.5799 46.9871 26.6411 46.9342C28.5053 45.8392 30.4014 44.8182 32.2815 43.7603C34.016 42.7799 35.7532 41.8101 37.4931 40.8508C37.6746 40.7407 37.8642 40.6443 38.0603 40.5625C38.6664 40.2751 39.2503 39.9436 39.8073 39.5707C40.4145 39.2295 41.0057 38.8645 41.6341 38.563C42.1668 38.3223 42.6434 38.0208 43.1414 37.7378L43.3012 37.6293C43.9963 37.1665 44.7579 36.8173 45.4743 36.3941C45.5463 36.3381 45.6288 36.2968 45.7171 36.2727C45.8053 36.2487 45.8975 36.2423 45.9882 36.254Z" fill="#062644"/>
<path d="M21.4961 68.3264L24.09 66.8267C25.1215 66.2289 26.1547 65.633 27.1898 65.0387C27.2437 65.0106 27.2998 64.9868 27.3575 64.9673C27.3948 64.9446 27.4288 64.917 27.4587 64.8853C27.5573 64.7822 27.709 64.7795 27.8182 64.6949L29.978 63.4412L33.3201 61.5183C33.4186 61.4152 33.5731 61.4178 33.6796 61.3253L34.2335 60.9735C34.3241 60.9047 34.4226 60.8545 34.5158 60.7963C35.0336 60.5449 35.5368 60.265 36.0231 59.9578C37.8659 58.8999 39.6981 57.8419 41.5383 56.7839C43.4699 55.673 45.4015 54.5648 47.3331 53.4592L53.1599 50.1002C53.1867 50.087 53.2155 50.0781 53.2451 50.0737C53.3116 50.0737 53.3276 50.0975 53.2983 50.1557C53.2682 51.0932 53.2859 52.0316 53.3516 52.9673C53.4265 53.5992 53.4603 54.2353 53.4528 54.8716C53.4102 56.3422 53.6392 57.8049 53.6126 59.2728C53.6206 59.3943 53.6206 59.5163 53.6126 59.6378C53.5833 59.9023 53.4448 60.0054 53.2104 59.9023C53.1372 59.8643 53.0541 59.849 52.9719 59.8584C52.8898 59.8678 52.8124 59.9015 52.7497 59.9552L45.5302 64.1871C43.6448 65.2873 41.7575 66.385 39.8685 67.48C39.7887 67.525 39.7141 67.5779 39.6369 67.6255C39.1389 67.964 38.5716 68.2021 38.0816 68.5406C37.5011 68.8686 36.9152 69.1913 36.34 69.5272C33.7764 71.0277 31.2127 72.5265 28.6491 74.0235C26.121 75.4976 23.5937 76.9682 21.0674 78.4353C19.2459 79.4932 17.4261 80.5512 15.6081 81.6092C15.5575 81.6383 15.5123 81.678 15.4643 81.7123C15.1501 81.8843 14.8518 82.0853 14.5376 82.2413L10.5217 84.5609C10.4323 84.6181 10.3538 84.6907 10.29 84.7752C10.061 85.0397 10.0583 85.0397 9.68551 84.8995C9.36957 84.704 9.06546 84.4903 8.77474 84.2594L5.54979 81.961C4.39935 81.1463 3.27554 80.2894 2.08782 79.5382C1.4833 79.1547 1.33417 78.7104 1.33683 78.0465C1.35814 72.9418 1.33683 67.8371 1.33683 62.7323C1.33683 62.5102 1.2889 62.2721 1.5126 62.1081C3.60576 63.4518 5.69892 64.7936 7.79208 66.1337C8.8786 66.832 9.9385 67.5699 11.0517 68.2232C11.539 68.5089 11.6482 68.8977 11.6934 69.3738C11.7387 69.8499 11.6721 70.2836 11.7787 70.7306C11.8655 71.2229 11.9021 71.7227 11.8879 72.2223C11.8743 72.5423 11.9679 72.8576 12.1542 73.119C12.3779 73.3835 12.5083 73.4364 12.8199 73.2697C13.3685 72.9735 13.9127 72.6711 14.4524 72.3625C15.4004 71.8335 16.3431 71.2702 17.2859 70.7227C18.0848 70.2651 18.8597 69.8075 19.6507 69.3552C20.0448 69.1304 20.4496 68.9162 20.841 68.6993C21.0709 68.596 21.2902 68.4711 21.4961 68.3264Z" fill="#EC144D"/>
<path d="M45.9883 36.2541C45.1734 36.5874 44.4464 37.082 43.6688 37.484C43.5556 37.5592 43.4317 37.6172 43.3013 37.6559C43.1282 37.484 43.1761 37.2592 43.1761 37.0529C43.1761 35.8098 43.1468 34.5667 43.1761 33.3236C43.216 31.7366 43.1228 30.1734 43.0616 28.6024C42.9045 24.6641 43.035 20.7258 42.9923 16.7875C42.9923 16.1183 42.8619 15.465 42.8912 14.7932C42.9098 14.3859 42.6941 14.7324 42.5822 14.7429C42.1277 15.1219 41.6277 15.4435 41.0936 15.7004C37.8979 17.5333 34.7475 19.4218 31.5652 21.2548C29.1072 22.6804 26.6732 24.1483 24.1992 25.5475C23.8638 25.6947 23.5473 25.8812 23.2565 26.1029C21.1606 27.3672 19.0382 28.5838 16.9264 29.8058C16.7506 29.8587 16.5857 29.9419 16.439 30.0518C16.4044 30.0756 16.3671 30.0967 16.3299 30.1179C16.1515 30.2101 15.9859 30.3248 15.8372 30.4591C13.9278 31.6255 11.9784 32.7284 10.0504 33.8605C9.45918 34.207 8.8813 34.5746 8.27945 34.9184C8.16638 34.9792 8.07468 35.0728 8.01662 35.1867C7.95856 35.3006 7.93691 35.4294 7.95456 35.5559C7.98918 37.5237 8.06907 39.4915 7.90928 41.4594C7.90928 41.5175 7.90928 41.5784 7.90928 41.6392C7.95189 43.9562 7.77347 46.2705 7.80809 48.5874C7.8507 51.436 7.65896 54.2793 7.72287 57.1279C7.74426 57.326 7.69528 57.5253 7.58439 57.6913C6.78548 58.2203 5.91199 58.6461 5.07846 59.1301C4.84777 59.3 4.58917 59.4288 4.31416 59.511C4.31416 57.9346 4.31416 56.3591 4.31416 54.7845C4.31416 51.6106 4.45797 48.4525 4.44199 45.2866C4.44199 43.9976 4.44199 42.7104 4.44199 41.425C4.44199 40.2718 4.46329 39.1212 4.47395 37.968C4.47395 37.8781 4.47395 37.7882 4.47395 37.7036C4.47395 37.3835 4.39139 37.3386 4.08248 37.4629C3.91229 37.5263 3.74601 37.5996 3.58449 37.6824C3.24642 37.8164 2.89938 37.9268 2.54589 38.013C2.44447 38.05 2.33308 38.05 2.23165 38.013C1.78959 37.8596 1.34219 37.7141 0.900127 37.5449C0.753816 37.4658 0.590025 37.424 0.423441 37.4232C0.157136 37.4549 0.0719177 37.283 0.0346349 37.0767C0.0185657 36.9715 0.0185657 36.8645 0.0346349 36.7593C0.120521 35.7036 0.148081 34.6441 0.11719 33.5854C0.0932225 31.7657 0.223712 29.9513 0.27431 28.1342C0.314408 27.7426 0.437862 27.364 0.636486 27.0233C1.3347 25.6311 2.17819 24.3155 3.15307 23.0983C4.19699 21.7546 5.37672 20.5248 6.51651 19.2631C7.65629 18.0015 8.71353 16.7901 9.88793 15.6211C11.2994 14.214 12.7507 12.8545 14.2926 11.5928C14.5775 11.3929 14.8497 11.1756 15.1075 10.9422C16.005 10.191 16.9503 9.50334 17.9011 8.82624C19.0116 8.03277 20.1647 7.30012 21.3337 6.59128C23.5254 5.26882 25.7065 3.92255 28.0606 2.88838C29.3506 2.30786 30.6697 1.7932 32.0126 1.34639C33.0312 1.011 34.0668 0.72849 35.115 0.500014C35.898 0.336029 36.6942 0.217007 37.4931 0.11121C38.5402 0.0134551 39.5921 -0.0236362 40.6435 0.000123133C41.4016 0.0129984 42.1563 0.101609 42.8965 0.264616C43.8508 0.437621 44.7724 0.756129 45.6288 1.20885C47.0172 1.90379 48.1085 3.07031 48.7046 4.4965C49.0468 5.32018 49.238 6.198 49.2692 7.08853C49.274 8.06828 49.1605 9.04507 48.931 9.99795C48.8373 10.4508 48.7 10.8937 48.5208 11.3204C48.425 11.5479 48.3078 11.6748 48.0521 11.6484C47.8384 11.6348 47.6265 11.6956 47.453 11.8203C47.1467 12.016 46.8245 12.1879 46.5049 12.3625C46.388 12.4135 46.2902 12.4996 46.2252 12.6088C46.1603 12.7179 46.1314 12.8446 46.1427 12.9708C46.1534 14.0147 46.1436 15.0603 46.1134 16.1077C45.9776 20.7734 46.0362 25.4417 46.0069 30.11C45.9936 32.0037 45.9563 33.8975 45.9297 35.7913C45.9143 35.948 45.9343 36.1061 45.9883 36.2541Z" fill="#EC144D"/>
<path d="M38.0844 68.5167C38.3294 68.2231 38.6915 68.0988 39.0084 67.9163C39.1901 67.7622 39.4066 67.6542 39.6396 67.6016C39.5916 67.7682 39.4319 67.8132 39.3094 67.8872C38.9898 68.0829 38.6622 68.2601 38.3373 68.4426C38.2648 68.4969 38.1749 68.5232 38.0844 68.5167Z" fill="#F7AFC2"/>
<path d="M50.63 39.1423C50.2426 39.0209 49.8938 38.8012 49.618 38.5049C49.9987 38.6404 50.3443 38.8581 50.63 39.1423Z" fill="#68697E"/>
<path d="M15.0809 10.929C14.8884 11.2287 14.6021 11.4573 14.266 11.5796C14.4801 11.2999 14.7599 11.0766 15.0809 10.929Z" fill="#F56F92"/>
<path d="M53.2983 50.1504C53.2821 50.1221 53.2643 50.0948 53.2451 50.0684C53.4245 49.8745 53.6582 49.7382 53.9161 49.677C53.8096 49.96 53.4634 49.9388 53.2983 50.1504Z" fill="#B1CBD2"/>
<path d="M36.9685 51.3407C37.0058 51.4121 37.0298 51.5126 36.9685 51.5496C36.6463 51.748 36.7022 52.0628 36.7022 52.359C36.7022 52.4357 36.7022 52.5124 36.7022 52.5865C36.7022 53.1154 36.5797 53.2239 36.0551 53.2953C34.969 53.4344 33.8745 53.4972 32.7795 53.4831C32.0925 53.4831 31.4187 53.6233 30.729 53.6153C30.3455 53.6153 30.0978 53.5571 29.9301 53.1472C29.701 52.5935 29.5184 52.0221 29.3841 51.4385C29.3514 51.2455 29.3902 51.0473 29.4933 50.8805C29.7375 50.4099 30.0477 49.9762 30.4147 49.5924C30.5585 49.4363 30.681 49.2724 30.8275 49.111C31.0672 48.8254 31.0645 48.8254 31.44 48.9629C31.4826 48.9788 31.5279 48.9867 31.5732 48.9999C31.6091 49.0329 31.6328 49.0769 31.6405 49.1249C31.6482 49.1728 31.6395 49.222 31.6158 49.2644C31.4374 49.7934 31.4134 50.2986 31.8821 50.6821C32.3508 51.0656 32.9473 51.1 33.5678 50.9625C34.0525 50.8567 34.2708 50.4652 34.5851 50.169C35.1603 50.2986 35.7036 50.534 36.2655 50.698C36.3693 50.7362 36.4612 50.8009 36.5318 50.8858C36.6577 51.0549 36.8044 51.2077 36.9685 51.3407Z" fill="#F0E9D8"/>
<path d="M27.0966 57.4267C26.8635 57.5346 26.6127 57.6 26.3563 57.6198C25.1792 57.842 23.9888 57.7388 22.8038 57.8129C22.2286 57.8499 21.6533 57.924 21.0728 57.9187C20.9561 57.9319 20.8385 57.9035 20.741 57.8386C20.6434 57.7737 20.5723 57.6765 20.5402 57.5643C20.2676 56.9791 20.063 56.3651 19.9304 55.734C19.8996 55.5562 19.9336 55.3734 20.0262 55.2182C20.2763 54.7343 20.5957 54.2888 20.9743 53.8958C21.1101 53.7529 21.2406 53.5995 21.3604 53.4488C21.6267 53.1261 21.6267 53.1261 21.9969 53.2848C22.0395 53.3006 22.0848 53.3112 22.13 53.3244C22.2312 53.6233 22.0581 53.9063 22.0794 54.2052C22.0719 54.4716 22.1659 54.7311 22.3427 54.9316C22.5195 55.1322 22.7659 55.2591 23.0328 55.287C23.8956 55.4272 24.6306 55.2235 25.134 54.4776C25.7092 54.6072 26.2498 54.8426 26.8117 55.0066C26.9684 55.069 27.0997 55.1816 27.1845 55.3267C27.2656 55.4386 27.3546 55.5446 27.4508 55.644C27.4988 55.7049 27.5467 55.8027 27.4828 55.8451C27.0593 56.136 27.3043 56.5645 27.2431 56.9268C27.2005 57.1014 27.2937 57.3024 27.0966 57.4267Z" fill="#EFE9D8"/>
<path d="M39.264 47.4262C39.2108 47.3998 39.1309 47.3866 39.1096 47.3442C38.7781 46.7062 38.5353 46.0264 38.3879 45.3235C38.351 45.1166 38.3877 44.9034 38.4918 44.7205C38.8071 44.1517 39.1946 43.6254 39.6449 43.1547C39.6809 43.1273 39.7139 43.0963 39.7434 43.0621C40.0923 42.6045 40.0896 42.6045 40.5929 42.8955C40.622 43.0886 40.6065 43.2858 40.5476 43.4721C40.4438 44.1888 40.8139 44.7337 41.5463 44.8183C42.2786 44.903 43.011 44.8554 43.453 44.1042C43.4884 44.054 43.5401 44.0176 43.5995 44.001C44.1534 44.1783 44.7127 44.3502 45.2639 44.53C45.4261 44.6109 45.5659 44.7298 45.6714 44.8765C45.7498 44.9744 45.8391 45.0631 45.9377 45.141C45.96 45.1623 45.9767 45.1887 45.9864 45.2179C45.9961 45.2471 45.9984 45.2782 45.9931 45.3085C45.9879 45.3388 45.9752 45.3673 45.9563 45.3916C45.9373 45.4159 45.9126 45.4352 45.8844 45.4478C45.8032 45.5076 45.7408 45.5891 45.7045 45.6827C45.6682 45.7764 45.6595 45.8784 45.6793 45.9768C45.6793 46.2175 45.6793 46.4608 45.6793 46.7015C45.6793 46.8311 45.6634 46.9475 45.4983 46.966C44.873 47.1277 44.2336 47.2296 43.5888 47.2702C42.5769 47.3099 41.5596 47.212 40.553 47.3733C40.1299 47.4665 39.6935 47.4844 39.264 47.4262Z" fill="#F0E9D8"/>
<path d="M19.4056 60.4234C19.6719 60.6667 19.6933 60.6746 19.4589 60.9232C19.4124 60.9722 19.3764 61.03 19.353 61.0932C19.3297 61.1564 19.3195 61.2237 19.3231 61.2909C19.3231 61.5157 19.3018 61.7458 19.3231 61.968C19.355 62.2483 19.2246 62.3727 18.9796 62.4599C18.823 62.5172 18.6558 62.5397 18.4896 62.5261C17.672 62.7165 16.8358 62.6689 16.0076 62.6742C15.0675 62.6742 14.1435 62.8778 13.2007 62.8355C13.0676 62.8355 12.9344 62.8699 12.8013 62.7906C12.5352 62.3626 12.3334 61.8983 12.2021 61.4126C12.1435 61.2565 12.1062 61.0952 12.0503 60.9418C11.8799 60.4498 12.1382 60.0636 12.3752 59.6828C12.7054 59.1538 13.1741 58.7359 13.5549 58.2492C13.5766 58.2132 13.6057 58.1821 13.6404 58.158C13.675 58.134 13.7145 58.1176 13.756 58.1098C13.7976 58.1021 13.8403 58.1032 13.8814 58.1131C13.9225 58.123 13.961 58.1414 13.9943 58.1672C14.0613 58.202 14.1318 58.2295 14.2047 58.2492C14.3325 58.5455 14.1887 58.8417 14.2047 59.1379C14.2393 59.8573 14.5083 60.1589 15.2167 60.2118C15.483 60.2303 15.7333 60.2118 15.9916 60.2118C16.5988 60.2276 16.8731 59.7542 17.2299 59.4024L18.4816 59.7939C18.8278 59.942 19.2033 60.0584 19.4056 60.4234Z" fill="#EFE9D8"/>
<path d="M34.585 50.1609C34.4386 50.8168 33.9166 51.0205 33.3494 51.1183C32.9122 51.2001 32.4603 51.1494 32.0525 50.9729C31.8784 50.8966 31.728 50.7755 31.617 50.622C31.506 50.4685 31.4384 50.2882 31.4213 50.1C31.373 49.7259 31.4273 49.3458 31.5784 48.9998L32.2921 47.8439C32.3454 47.754 32.3694 47.6403 32.4945 47.6165C32.8583 47.7903 33.1629 48.0661 33.3707 48.4099C33.6716 48.8411 33.9299 49.2933 34.4998 49.415C34.5291 49.6716 34.5557 49.9175 34.585 50.1609Z" fill="#EC144D"/>
<path d="M43.5995 44.0011C43.3838 44.7073 42.8246 44.9189 42.1668 44.9638C41.8338 44.9968 41.4976 44.9617 41.1788 44.8607C40.9821 44.8016 40.8068 44.6873 40.674 44.5315C40.5412 44.3757 40.4566 44.185 40.4305 43.9826C40.3766 43.6084 40.4206 43.2267 40.5583 42.8743C40.5716 42.84 40.585 42.8082 40.6009 42.7738C40.8087 42.4459 41.0137 42.1153 41.2268 41.7926C41.2987 41.6815 41.3306 41.5281 41.4718 41.4805C41.8419 41.5281 42.0044 41.8587 42.2307 42.0729C42.3738 42.2072 42.4903 42.3669 42.5743 42.5437C42.776 42.8897 43.104 43.1454 43.4903 43.2579C43.5276 43.5065 43.5622 43.7525 43.5995 44.0011Z" fill="#EC144D"/>
<path d="M25.1313 54.4748C24.9875 55.0752 24.5241 55.3185 23.9809 55.4137C23.5176 55.5108 23.0357 55.4694 22.5961 55.2947C22.4206 55.2207 22.2691 55.1001 22.1582 54.9461C22.0473 54.7921 21.9814 54.6107 21.9676 54.4219C21.912 54.0475 21.9676 53.6651 22.1274 53.3216C22.375 52.9116 22.6227 52.5043 22.8677 52.0917C22.9156 52.0123 22.9476 51.9303 23.0515 51.9092C23.5206 52.2353 23.9131 52.6585 24.2019 53.1497C24.2847 53.3063 24.405 53.4404 24.5522 53.54C24.6994 53.6396 24.869 53.7018 25.0461 53.721L25.1313 54.4748Z" fill="#EC144D"/>
<path d="M17.2273 59.3998C17.0702 60.0134 16.6015 60.2673 16.0316 60.344C15.6259 60.4101 15.2102 60.3821 14.8172 60.262C14.6136 60.2045 14.4326 60.0865 14.2983 59.9239C14.1641 59.7612 14.0831 59.5618 14.0662 59.3522C14.02 58.9771 14.0675 58.5964 14.2047 58.2439C14.471 57.8287 14.7214 57.4161 14.977 57.0008C15.025 56.9241 15.0649 56.8474 15.1581 56.8157C15.6667 57.1225 15.973 57.6092 16.2819 58.0852C16.3656 58.2417 16.4874 58.3748 16.6363 58.4723C16.7852 58.5698 16.9564 58.6286 17.1341 58.6433C17.166 58.8972 17.198 59.1485 17.2273 59.3998Z" fill="#EC144D"/>
<path d="M43.1841 37.6559C43.1841 35.8547 43.1841 34.0535 43.1441 32.2523C43.0989 30.4009 43.0296 28.5626 43.0323 26.7165C43.0323 23.8414 43.0323 20.9664 42.9923 18.0887C42.979 17.0307 42.9284 15.9728 42.8991 14.9148C42.9138 14.8217 42.8908 14.7267 42.8352 14.6503C42.6621 14.5789 42.5689 14.8249 42.3878 14.7799C42.5609 14.4996 42.8432 14.4149 43.1867 14.3276C42.9204 14.8831 43.0003 15.4121 43.0855 15.9437C43.1038 16.0937 43.11 16.245 43.1042 16.396C43.1042 20.0804 43.1042 23.7621 43.1308 27.4465C43.1308 28.3828 43.1601 29.3244 43.2187 30.258C43.3598 32.5142 43.2453 34.7703 43.2906 37.0264C43.2906 37.238 43.2906 37.4496 43.2906 37.6612C43.288 37.6834 43.2774 37.704 43.2608 37.719C43.2441 37.7341 43.2226 37.7427 43.2 37.7432C43.1628 37.7432 43.1494 37.7167 43.1521 37.6956C43.1548 37.6744 43.1761 37.6559 43.1841 37.6559Z" fill="#F04C77"/>
<path d="M25.0354 53.7211C24.5454 53.8163 24.4628 53.7819 24.2365 53.3772C23.9221 52.9162 23.5655 52.485 23.1713 52.0891C23.1155 52.039 23.071 51.9777 23.0408 51.9093C23.2831 51.658 23.5734 51.7294 23.8237 51.8485C24.0766 51.9714 24.3016 52.1444 24.4848 52.3568C24.6679 52.5692 24.8055 52.8165 24.8889 53.0836C24.9662 53.2847 25.1366 53.4777 25.0354 53.7211Z" fill="#E87D9A"/>
<path d="M17.1341 58.6433C16.6015 58.7385 16.6015 58.7226 16.2952 58.273C16.0505 57.8958 15.7715 57.5416 15.4617 57.215C15.3277 57.1142 15.223 56.9801 15.1581 56.8262C15.2505 56.7344 15.3721 56.6772 15.5021 56.6642C15.6322 56.6512 15.7627 56.6832 15.8718 56.7548C16.2289 56.934 16.533 57.2022 16.7543 57.5333C16.9756 57.8643 17.1065 58.2468 17.1341 58.6433Z" fill="#E87C9A"/>
<path d="M34.4998 49.4285C34.3212 49.4659 34.1351 49.4399 33.9739 49.3547C33.8128 49.2696 33.6869 49.1309 33.6183 48.9629C33.2998 48.4708 32.9225 48.0187 32.4945 47.6167C32.6942 47.3152 32.9898 47.3998 33.2242 47.495C33.5878 47.6792 33.8967 47.9545 34.1204 48.2936C34.3441 48.6326 34.4749 49.0238 34.4998 49.4285Z" fill="#E87D9B"/>
<path d="M43.4903 43.2576H43.1734C43.0833 43.2588 42.9947 43.2346 42.9178 43.1878C42.841 43.141 42.7791 43.0735 42.7394 42.9931C42.4049 42.4236 41.9764 41.914 41.4717 41.4855C41.6582 41.1814 41.9404 41.3004 42.2014 41.3268C42.624 41.5628 42.9732 41.9096 43.2107 42.3293C43.3977 42.6029 43.4953 42.927 43.4903 43.2576Z" fill="#E97D9B"/>
<path d="M12.804 62.7907C14.3405 62.7537 15.8691 62.5262 17.411 62.6056C17.7706 62.6214 18.1221 62.4231 18.4922 62.5262C18.2186 62.6128 17.9365 62.6704 17.6507 62.6981C16.1727 62.6981 14.7027 62.8515 13.2274 62.8753C13.0862 62.878 12.9211 62.9388 12.804 62.7907Z" fill="#ADA5A4"/>
<path d="M39.264 47.4261C40.636 47.2714 42.0165 47.2051 43.3971 47.2278C43.6855 47.2308 43.9732 47.2006 44.2546 47.1378C44.6674 47.0585 45.0881 47.0241 45.5062 46.9712C45.4011 47.0808 45.2588 47.1477 45.1068 47.159C44.1929 47.3038 43.2677 47.3658 42.3425 47.3441C41.4584 47.3256 40.5876 47.5055 39.7034 47.4817C39.557 47.4764 39.3999 47.5266 39.264 47.4261Z" fill="#ABA2A1"/>
<path d="M27.0966 57.4266C27.2244 57.1092 27.1472 56.7759 27.1711 56.4506C27.1711 56.3183 27.1418 56.1173 27.2137 56.0618C27.5333 55.8184 27.3575 55.628 27.1898 55.4191C27.1738 55.4006 27.1898 55.3609 27.1898 55.3318C27.2697 55.3979 27.3469 55.4667 27.4294 55.5302C27.6052 55.6703 27.6478 55.8264 27.4507 55.9692C27.3807 56.0264 27.3274 56.1013 27.2965 56.186C27.2656 56.2707 27.2581 56.3621 27.275 56.4506C27.275 56.7151 27.275 56.9611 27.275 57.215C27.2617 57.3208 27.2484 57.4451 27.0966 57.4266Z" fill="#A5B7B2"/>
<path d="M38.0844 40.605C38.1669 40.3775 38.3986 40.3405 38.5717 40.2506C38.9657 39.9889 39.3882 39.7724 39.8313 39.6052C39.7994 39.7507 39.6609 39.7613 39.565 39.8195C39.0928 40.1192 38.5977 40.3818 38.0844 40.605Z" fill="#B3ADB8"/>
<path d="M43.1841 37.6558C43.1985 37.681 43.2075 37.7089 43.2107 37.7378C42.7296 38.0878 42.2063 38.3766 41.6528 38.5974C41.8046 38.3329 42.1082 38.2905 42.3346 38.1371C42.6115 37.9573 42.9018 37.8145 43.1841 37.6558Z" fill="#B1ABB6"/>
<path d="M43.2107 42.3242C42.9021 41.9635 42.5645 41.6283 42.2014 41.3218C42.4383 41.3961 42.6537 41.526 42.8293 41.7005C43.005 41.875 43.1358 42.0889 43.2107 42.3242Z" fill="#966583"/>
<path d="M40.6009 42.7736C40.6222 42.8212 40.6009 42.8503 40.5583 42.8741C40.4857 42.8609 40.415 42.8387 40.3479 42.808C40.3151 42.784 40.2775 42.767 40.2377 42.7584C40.1978 42.7497 40.1565 42.7495 40.1166 42.7577C40.0766 42.7659 40.0389 42.7825 40.0058 42.8062C39.9727 42.8299 39.945 42.8602 39.9245 42.8953C39.842 42.9905 39.81 43.1466 39.6582 43.1598C39.6747 43.0559 39.7219 42.9592 39.794 42.8821C40.0097 42.5938 40.1003 42.5726 40.4438 42.7181L40.6009 42.7736Z" fill="#53717C"/>
<path d="M19.4056 60.4234C19.1393 60.1404 18.7745 60.0214 18.4789 59.7913C18.8917 59.8521 19.2485 59.9949 19.4056 60.4234Z" fill="#8EA7A6"/>
<path d="M21.4962 68.3264C21.4254 68.4335 21.3306 68.5229 21.2193 68.5876C21.108 68.6523 20.9831 68.6906 20.8544 68.6994C21.0259 68.514 21.2494 68.3841 21.4962 68.3264Z" fill="#A8184A"/>
<path d="M36.9685 51.3406C36.8564 51.317 36.7538 51.2609 36.6737 51.1795C36.5936 51.0981 36.5396 50.9949 36.5184 50.8831C36.7062 50.9938 36.8614 51.1516 36.9685 51.3406Z" fill="#95AAA8"/>
<path d="M22.4122 49.4178C22.4616 49.3393 22.5298 49.2741 22.6106 49.228C22.6914 49.1818 22.7824 49.1562 22.8756 49.1533C22.8273 49.2328 22.7594 49.2988 22.6783 49.3451C22.5973 49.3913 22.5057 49.4164 22.4122 49.4178Z" fill="#797689"/>
<path d="M25.9834 47.4156C26.0328 47.3371 26.1009 47.2719 26.1818 47.2258C26.2626 47.1796 26.3536 47.154 26.4468 47.1511C26.3998 47.2318 26.3323 47.2988 26.2509 47.3453C26.1695 47.3917 26.0772 47.416 25.9834 47.4156Z" fill="#787688"/>
<path d="M45.9457 45.1541C45.8751 45.1541 45.8073 45.1263 45.7574 45.0767C45.7074 45.0271 45.6794 44.9598 45.6794 44.8896C45.7988 44.9409 45.894 45.0355 45.9457 45.1541Z" fill="#859E9E"/>
<path d="M27.8183 64.6949C27.78 64.7548 27.7268 64.8038 27.6638 64.8372C27.6008 64.8706 27.5301 64.8872 27.4587 64.8853C27.4878 64.8176 27.5393 64.7618 27.6047 64.7272C27.6701 64.6925 27.7454 64.6811 27.8183 64.6949Z" fill="#95194A"/>
<path d="M33.6797 61.3253C33.642 61.3858 33.589 61.4356 33.5259 61.4694C33.4628 61.5033 33.3919 61.5202 33.3202 61.5183C33.3503 61.4513 33.4019 61.3961 33.4669 61.3612C33.5319 61.3262 33.6067 61.3136 33.6797 61.3253Z" fill="#9E194B"/>
<path d="M34.5158 60.7962C34.4914 60.8499 34.4516 60.8953 34.4014 60.9268C34.3512 60.9583 34.2929 60.9745 34.2335 60.9734C34.2504 60.9145 34.2885 60.8639 34.3406 60.8312C34.3927 60.7985 34.455 60.786 34.5158 60.7962Z" fill="#472047"/>
<path d="M22.8756 49.1453C22.8901 49.111 22.916 49.0826 22.9489 49.0649C22.9818 49.0471 23.0198 49.0409 23.0567 49.0475C23.0381 49.1585 22.9715 49.1744 22.8756 49.1453Z" fill="#797689"/>
<path d="M26.4495 47.1433C26.4635 47.1092 26.4888 47.0809 26.5213 47.0631C26.5538 47.0453 26.5914 47.039 26.6279 47.0454C26.6092 47.1565 26.5427 47.1724 26.4495 47.1433Z" fill="#787688"/>
<path d="M27.4587 64.8852C27.4539 64.9083 27.4412 64.9291 27.4227 64.944C27.4043 64.9589 27.3813 64.9671 27.3575 64.9672C27.3609 64.9434 27.3731 64.9217 27.3919 64.9064C27.4107 64.8912 27.4346 64.8836 27.4587 64.8852Z" fill="#95194A"/>
<path d="M46.1374 3.40396C46.4691 3.58797 46.8189 3.73775 47.1814 3.85095C47.7885 4.06254 47.8471 4.13925 47.8817 4.79254C47.9485 5.5933 47.9351 6.39865 47.8418 7.19678C47.6687 8.36319 47.7326 9.52432 47.7113 10.6881C47.7149 10.7916 47.6878 10.894 47.6334 10.9824C47.5789 11.0708 47.4995 11.1413 47.4051 11.1853C44.1881 13.0562 40.9738 14.9305 37.7621 16.8084C35.898 17.9061 34.0339 19.0196 32.1484 20.1172C30.263 21.2149 28.3136 22.339 26.3989 23.4578C24.4842 24.5766 22.5561 25.7192 20.6307 26.8486C18.6174 28.03 16.6024 29.2105 14.5856 30.3901C12.7214 31.4746 10.8573 32.551 8.99317 33.6381C7.4273 34.5638 5.86142 35.5081 4.26359 36.4338C3.95636 36.5982 3.63981 36.7448 3.31554 36.8729C3.08119 36.976 3.03059 36.9469 3.02527 36.6745C3.02527 36.0688 3.02527 35.4631 3.02527 34.8548C3.02527 34.3417 3.06788 33.8259 3.05723 33.3101C3.03858 32.3844 3.18505 31.4587 3.17706 30.5435C3.19936 30.4086 3.19118 30.2703 3.1531 30.1389C2.94271 29.7712 3.13978 29.4988 3.32886 29.2264C3.59516 28.8534 3.86147 28.4937 4.12777 28.1261C4.78555 27.2189 5.438 26.3064 6.09311 25.3965C6.18365 25.3304 6.20496 25.2087 6.2955 25.132C6.39403 24.9628 6.54583 24.8332 6.64702 24.6665C6.94134 24.3839 7.20223 24.0689 7.42463 23.7276C8.2848 22.6299 9.27279 21.6487 10.2155 20.6251C10.852 19.9347 11.5018 19.2603 12.1462 18.5779C12.4711 18.1441 12.9159 17.8188 13.2461 17.3903L15.7467 14.8618C16.9527 13.6856 18.2193 12.5723 19.5415 11.5265C20.595 10.6536 21.7112 9.85803 22.881 9.14609C24.5204 8.14089 26.2488 7.28655 28.0447 6.59374C28.9075 6.26577 29.7623 5.91928 30.6385 5.62834C31.8661 5.21838 33.0885 4.7899 34.3375 4.44077C35.0325 4.24769 35.7302 4.05196 36.4173 3.8245C37.4503 3.55311 38.5 3.34902 39.5597 3.21352C40.0923 3.16327 40.6249 3.08656 41.1735 3.00457C41.7744 2.91297 42.3844 2.8952 42.9897 2.95167C43.549 3.00457 44.1082 3.04689 44.6728 3.06541C45.1729 3.11922 45.6647 3.2329 46.1374 3.40396Z" fill="#062644"/>
<path d="M46.1374 3.40408C45.806 3.38333 45.478 3.32476 45.1601 3.22952C44.8821 3.15633 44.5955 3.12074 44.3079 3.12372C43.5303 3.14752 42.7607 2.93328 41.9857 3.02321C41.2933 3.1052 40.5903 3.06289 39.9112 3.25596C39.5986 3.31168 39.2829 3.34878 38.9658 3.36705C38.1669 3.49401 37.368 3.69767 36.5691 3.8643C36.5242 3.86767 36.4792 3.8632 36.4359 3.85107C36.4669 3.8076 36.5065 3.77087 36.5523 3.74312C36.5981 3.71538 36.6491 3.69721 36.7022 3.68973C37.3174 3.55749 37.9379 3.44111 38.553 3.30886C38.8771 3.2302 39.2102 3.19463 39.5437 3.20307C39.6652 3.20765 39.786 3.1822 39.8952 3.12901C39.9761 3.08051 40.0673 3.05153 40.1615 3.04437C40.9258 3.09991 41.6555 2.79575 42.4198 2.85129C42.8885 2.88479 43.3545 2.9324 43.8179 2.99412C44.0281 3.02885 44.2418 3.03862 44.4544 3.02321C44.9683 2.9756 45.4264 3.211 45.9164 3.2877C45.96 3.28764 46.003 3.29822 46.0415 3.31851C46.0801 3.3388 46.113 3.36819 46.1374 3.40408Z" fill="#AC2F56"/>
<path d="M13.2646 17.4036C12.9687 17.8587 12.5968 18.2603 12.1648 18.5911C12.1648 18.562 12.1648 18.5224 12.1648 18.5039C12.4791 18.0889 12.8491 17.7187 13.2646 17.4036Z" fill="#9A2E54"/>
<path d="M24.1565 25.4944C23.9104 25.762 23.5896 25.9507 23.2351 26.0366C23.4971 25.7891 23.8121 25.6038 24.1565 25.4944Z" fill="#F8BBCB"/>
<path d="M6.66036 24.6799C6.64216 24.7793 6.60093 24.8731 6.53991 24.9539C6.4789 25.0347 6.39979 25.1003 6.30884 25.1454C6.31683 24.9127 6.48726 24.791 6.66036 24.6799Z" fill="#A32D55"/>
<path d="M47.2799 3.16868C47.2743 3.19763 47.2588 3.22376 47.2359 3.24258C47.2131 3.2614 47.1844 3.27174 47.1547 3.27183C47.0775 3.27183 47.0642 3.20571 47.0722 3.14488C47.0801 3.08404 47.1014 3.05759 47.1574 3.06024C47.1871 3.06213 47.2152 3.07384 47.2374 3.09349C47.2596 3.11314 47.2746 3.13961 47.2799 3.16868Z" fill="#ED295D"/>
<path d="M16.8331 29.7712C16.7905 29.8556 16.7238 29.9256 16.6415 29.9726C16.5591 30.0197 16.4646 30.0416 16.3698 30.0357C16.4254 29.9632 16.495 29.9025 16.5746 29.8571C16.6542 29.8117 16.7421 29.7825 16.8331 29.7712Z" fill="#F6A9BE"/>
<path d="M16.3698 30.0383C16.3268 30.1216 16.2616 30.1916 16.1813 30.2406C16.101 30.2896 16.0087 30.3157 15.9144 30.316C15.9644 30.2387 16.0313 30.1736 16.1102 30.1255C16.189 30.0774 16.2778 30.0476 16.3698 30.0383Z" fill="#F6A9BE"/>
<path d="M6.31407 25.1428C6.31271 25.2025 6.29241 25.2602 6.25606 25.3077C6.21971 25.3552 6.16918 25.39 6.11168 25.4073C6.10663 25.3462 6.12451 25.2854 6.16187 25.2366C6.19923 25.1877 6.25343 25.1544 6.31407 25.1428Z" fill="#A32D55"/>
<path d="M30.0952 51.6264C30.5879 51.518 31.0512 51.6449 31.5093 51.7137C31.7027 51.7488 31.8986 51.7682 32.0952 51.7719H35.8421C35.9885 51.7719 36.0711 51.8354 36.0738 51.9861C36.0738 52.0919 36.0738 52.1977 36.0738 52.3035C36.0738 52.6579 36.0551 52.6209 35.7249 52.687C34.6277 52.9039 33.5172 52.8193 32.4121 52.8801C31.9141 52.9092 31.4134 52.9568 30.9128 52.9568C30.5186 52.9568 30.4441 52.9039 30.3322 52.5336C30.239 52.2585 30.1724 51.9676 30.0952 51.6264Z" fill="#C0BBAD"/>
<path d="M20.6279 55.9243C21.0303 55.85 21.4447 55.8718 21.837 55.9878C22.0901 56.0399 22.3481 56.0647 22.6066 56.0618H24.769C24.9975 56.0457 25.2271 56.0681 25.4481 56.1279C25.5947 56.1746 25.7532 56.1681 25.8954 56.1094C26.0429 56.07 26.1957 56.0539 26.3482 56.0618C26.5612 56.0618 26.6597 56.1385 26.6438 56.3528C26.6438 56.4136 26.6438 56.4744 26.6438 56.5353C26.6438 56.9294 26.6251 56.8712 26.2257 56.9875C25.3096 57.252 24.3802 57.0986 23.4588 57.1595C22.9767 57.1886 22.4947 57.2547 22.0127 57.3049C21.9377 57.3168 21.8622 57.3247 21.7864 57.3287C21.0061 57.3287 21.0034 57.416 20.849 56.6834C20.7587 56.4354 20.6849 56.1818 20.6279 55.9243Z" fill="#C0BBAD"/>
<path d="M40.5529 46.7888C40.1961 46.7888 39.9511 46.7888 39.7088 46.7888C39.6397 46.7953 39.5705 46.777 39.5138 46.7372C39.4572 46.6974 39.4167 46.6388 39.3998 46.5719C39.3093 46.2862 39.2188 46.0006 39.1335 45.7097C39.0696 45.4584 39.0936 45.4452 39.3652 45.4214C39.6687 45.4005 39.9736 45.4336 40.2653 45.5192C40.5926 45.5876 40.9273 45.6143 41.2613 45.5986H43.2719C43.4845 45.5801 43.6986 45.6017 43.9031 45.662C44.0352 45.7041 44.1783 45.6965 44.3052 45.6409C44.4672 45.5965 44.636 45.5821 44.8032 45.5986C44.947 45.5986 45.0322 45.6647 45.0322 45.8154C45.0322 45.9212 45.0322 46.027 45.0322 46.1328C45.0322 46.4793 45.0109 46.4317 44.686 46.519C43.698 46.7835 42.6914 46.6354 41.6954 46.6989C41.3163 46.7479 40.935 46.778 40.5529 46.7888Z" fill="#C0BBAD"/>
<path d="M13.3712 60.8835C14.5509 61.0608 15.7413 60.9338 16.9237 60.9973C17.4031 61.0555 17.8878 61.0555 18.3671 60.9973C18.66 60.9417 18.7346 61.0449 18.7506 61.3543C18.7745 61.7987 18.7506 61.7908 18.3165 61.9177C17.7713 62.0547 17.2082 62.1082 16.6468 62.0764C15.7979 62.0768 14.95 62.1342 14.1089 62.2483C13.2327 62.3594 13.1795 62.3224 12.8546 61.4549C12.6602 60.9259 12.6761 60.8968 13.2327 60.8968L13.3712 60.8835Z" fill="#C1BCAE"/>
</g>
<defs>
<clipPath id="clip0_38_1266">
<rect width="57" height="85" fill="white"/>
</clipPath>
</defs>
</svg>
