<svg width="246" height="341" viewBox="0 0 246 341" fill="none" xmlns="http://www.w3.org/2000/svg">
<path d="M65.071 0.54545H36.1648L0.15625 23.3438V50.6165L33.4659 29.7358H34.3182V146H65.071V0.54545Z" fill="#062644 "/>
<path d="M187.051 340.989C221.142 340.989 245.361 322.949 245.29 297.665C245.361 279.767 233.642 266.983 211.199 264.355V263.219C228.031 260.804 239.963 249.511 239.892 233.176C239.963 209.455 218.514 191.557 187.335 191.557C155.943 191.557 133.074 209.739 132.79 235.591H166.384C166.668 225.648 175.616 218.972 187.335 218.972C198.486 218.972 206.085 225.719 206.014 235.449C206.085 245.534 197.136 252.494 184.21 252.494H170.077V277.494H184.21C198.912 277.494 208.5 284.739 208.358 294.966C208.5 305.264 199.693 312.438 187.193 312.438C174.764 312.438 165.602 305.832 165.247 296.244H129.878C130.162 322.523 153.812 340.989 187.051 340.989Z" fill="#062644 "/>
<line x1="203.889" y1="77.8891" x2="12.1539" y2="269.624" stroke="#062644 " stroke-width="11"/>
</svg>
